<svg width="20" height="20" viewBox="0 0 20 20" fill="none" xmlns="http://www.w3.org/2000/svg">
<path fill-rule="evenodd" clip-rule="evenodd" d="M16.8068 18.7503C17.3437 19.2873 18.2143 19.2873 18.7513 18.7503C19.2883 18.2133 19.2883 17.3427 18.7513 16.8058L11.9454 9.99989L18.7513 3.19403C19.2882 2.65706 19.2882 1.78646 18.7513 1.24949C18.2143 0.712518 17.3437 0.712518 16.8067 1.24949L10.0009 8.05534L3.19494 1.24941C2.65797 0.712437 1.78737 0.712437 1.2504 1.24941C0.71343 1.78638 0.713429 2.65698 1.2504 3.19395L8.05634 9.99989L1.25038 16.8058C0.713413 17.3428 0.713414 18.2134 1.25038 18.7504C1.78736 19.2874 2.65796 19.2874 3.19493 18.7504L10.0009 11.9444L16.8068 18.7503Z" fill="#0776C1"/>
</svg>
