<svg width="74" height="81" viewBox="0 0 74 81" fill="none" xmlns="http://www.w3.org/2000/svg">
<path d="M71.8668 7.68601H63.0998V6.05301C63.0998 3.03701 60.6488 0.583008 57.6348 0.583008C54.6178 0.583008 52.1628 3.03701 52.1628 6.05301V7.68601H42.4578V6.05301C42.4578 3.03701 40.0048 0.583008 36.9888 0.583008C33.9708 0.583008 31.5168 3.03701 31.5168 6.05301V7.68601H21.8148V6.05301C21.8148 3.03701 19.3598 0.583008 16.3428 0.583008C13.3268 0.583008 10.8738 3.03701 10.8738 6.05301V7.68601H2.13281C1.30381 7.68601 0.632812 8.35701 0.632812 9.18601V78.918C0.632812 79.746 1.30381 80.418 2.13281 80.418H71.8658C72.6938 80.418 73.3658 79.746 73.3658 78.918V9.18601C73.3668 8.35701 72.6948 7.68601 71.8668 7.68601ZM55.1638 6.05301C55.1638 4.69101 56.2718 3.58301 57.6358 3.58301C58.9948 3.58301 60.1008 4.69101 60.1008 6.05301V13.475C60.1008 14.837 58.9948 15.945 57.6358 15.946C56.2728 15.946 55.1638 14.838 55.1638 13.475V6.05301ZM36.9898 3.58301C38.3508 3.58301 39.4588 4.69101 39.4588 6.05301V13.475C39.4588 14.837 38.3518 15.945 36.9898 15.946C35.6268 15.946 34.5178 14.838 34.5178 13.475V9.32701C34.5218 9.28001 34.5318 9.23501 34.5318 9.18601C34.5318 9.13701 34.5218 9.09201 34.5178 9.04501V6.05301C34.5178 4.69101 35.6268 3.58301 36.9898 3.58301ZM13.8748 6.05301C13.8748 4.69101 14.9828 3.58301 16.3438 3.58301C17.7068 3.58301 18.8158 4.69101 18.8158 6.05301V13.475C18.8158 14.837 17.7068 15.945 16.3438 15.946C14.9828 15.946 13.8748 14.838 13.8748 13.475V6.05301ZM70.3668 77.418H3.63381V10.686H10.8748V13.475C10.8748 16.492 13.3288 18.946 16.3448 18.946C19.3618 18.945 21.8158 16.49 21.8158 13.475V10.686H31.5178V13.475C31.5178 16.492 33.9728 18.946 36.9908 18.946C40.0058 18.945 42.4588 16.49 42.4588 13.475V10.686H52.1638V13.475C52.1638 16.492 54.6188 18.946 57.6368 18.946C60.6498 18.945 63.1008 16.49 63.1008 13.475V10.686H70.3678V77.418H70.3668Z" fill="#0032A4"/>
<path d="M56.2526 33.8335C55.5966 33.3315 54.6546 33.4555 54.1496 34.1135L34.1986 60.1865L20.9556 43.9075C20.4326 43.2645 19.4876 43.1675 18.8456 43.6905C18.2026 44.2135 18.1056 45.1585 18.6286 45.8005L33.0716 63.5535C33.3566 63.9045 33.7836 64.1075 34.2356 64.1075C34.2426 64.1075 34.2506 64.1075 34.2576 64.1075C34.7166 64.1005 35.1476 63.8835 35.4266 63.5185L56.5336 35.9365C57.0356 35.2795 56.9106 34.3375 56.2526 33.8335Z" fill="#0032A4"/>
</svg>
