<svg width="1320" height="408" viewBox="0 0 1320 408" fill="none" xmlns="http://www.w3.org/2000/svg">
<line x1="86.2591" y1="276.155" x2="370.102" y2="114.688" stroke="#57679A" stroke-width="4" stroke-dasharray="24 24"/>
<line x1="372.692" y1="115.227" x2="550.306" y2="352.329" stroke="#7B7B7B" stroke-width="4" stroke-dasharray="24 24"/>
<line x1="548.391" y1="353.253" x2="843.281" y2="306.512" stroke="#FFB950" stroke-width="4" stroke-dasharray="24 24"/>
<line x1="811.571" y1="114.381" x2="845.565" y2="308.142" stroke="#649CCF" stroke-width="4" stroke-dasharray="24 24"/>
<line x1="821.593" y1="108.48" x2="1200.62" y2="126.326" stroke="#FB7777" stroke-width="4" stroke-dasharray="24 24"/>
<ellipse cx="86.927" cy="278.113" rx="60.921" ry="64.7691" transform="rotate(6.82899 86.927 278.113)" fill="#E8C3BE"/>
<mask id="mask0_41_267" style="mask-type:alpha" maskUnits="userSpaceOnUse" x="11" y="175" width="175" height="86">
<rect x="19.3779" y="175.914" width="167.111" height="65.5371" transform="rotate(6.82899 19.3779 175.914)" fill="#C4C4C4"/>
</mask>
<g mask="url(#mask0_41_267)">
<path d="M86.9783 326.693C79 326.284 71.3613 325.065 63.5363 323.983C54.6184 322.915 43.6927 324.113 38.002 315.052C34.0671 308.785 35.6598 300.183 38.891 293.372C41.1679 288.575 44.271 283.764 43.968 278.437C43.7381 274.403 41.5582 270.816 40.8738 266.851C40.2066 262.986 41.0689 258.459 43.3787 255.291C45.487 252.387 48.4726 251.11 49.5236 247.234C50.0985 245.107 49.7955 242.858 49.7249 240.653C49.1486 222.582 64.1497 211.775 78.3587 205.923C87.0738 202.325 97.1319 201.405 105.474 206.313C106.081 206.733 106.753 207.038 107.461 207.216C108.122 207.266 108.786 207.249 109.446 207.165C120.602 206.758 132.298 229.219 128.015 239.385C126.715 242.463 124.875 245.594 125.302 248.915C125.934 253.807 131.265 257.003 131.381 261.946C131.509 267.278 125.434 271.31 125.899 276.621C126.174 279.748 128.666 282.068 130.092 284.822C131.159 286.914 131.627 289.299 131.438 291.687C131.329 293.162 130.967 294.608 130.369 295.952C128.582 299.941 124.707 303.298 125.049 307.691C125.454 312.896 131.397 315.433 130.384 321.18C129.837 324.25 127.002 326.339 124.169 327.191C122.138 327.737 120.07 328.1 117.986 328.276C116.442 328.452 115.156 327.973 113.635 327.956C109.401 327.908 105.196 328.111 100.958 327.861C96.3188 327.553 91.6543 326.933 86.9783 326.693Z" fill="url(#paint0_linear_41_267)"/>
<path d="M70.3567 256.057C69.7851 260.83 65.6823 264.263 61.1928 263.725C56.7033 263.188 53.5272 258.883 54.0988 254.11C54.6704 249.336 58.7732 245.903 63.2627 246.441C67.7522 246.978 70.9283 251.283 70.3567 256.057Z" fill="#E18477"/>
<path d="M73.3469 255.383C72.7753 260.156 68.6725 263.59 64.183 263.052C59.6935 262.515 56.5174 258.209 57.089 253.436C57.6606 248.663 61.7635 245.23 66.253 245.767C70.7424 246.305 73.9185 250.61 73.3469 255.383Z" fill="#A76962"/>
<path d="M119.026 248.751C122.162 270.109 107.241 293.693 99.9061 292.815C89.8645 291.612 66.4987 280.166 63.367 258.809C60.2353 237.451 70.1643 217.885 85.5326 215.11C100.901 212.335 115.884 227.398 119.026 248.751Z" fill="#E18477"/>
<path d="M87.3039 248.598C90.2208 248.947 89.6497 253.716 86.7305 253.387L86.5966 253.371C83.6797 253.021 84.2502 248.258 87.1701 248.582L87.3039 248.598Z" fill="#00214E"/>
<path d="M111.336 250.759C114.047 251.084 113.517 255.507 110.803 255.207L110.684 255.193C107.977 254.869 108.507 250.441 111.216 250.745L111.336 250.759Z" fill="#00214E"/>
<path d="M104.202 221.548C104.128 221.678 104.054 221.814 103.974 221.949C102.198 224.927 100.006 227.605 97.4746 229.89C92.4305 234.546 86.4038 237.929 80.2538 240.601C76.6971 242.215 73.0525 243.594 69.341 244.729C64.0005 246.271 59.5637 246.828 59.4067 246.964C59.6859 240.866 58.0962 227.815 75.0039 217.247C88.634 208.736 106.563 211.677 106.563 211.677C106.054 215.438 106.012 218.258 104.202 221.548Z" fill="url(#paint1_linear_41_267)"/>
<path fill-rule="evenodd" clip-rule="evenodd" d="M100.996 247.588C100.996 247.584 100.998 247.549 101.011 247.511L101.464 247.68C101.472 247.656 101.475 247.638 101.475 247.632C101.476 247.625 101.477 247.619 101.477 247.617C101.477 247.614 101.477 247.612 101.477 247.612C101.477 247.612 101.477 247.613 101.477 247.614C101.477 247.619 101.477 247.631 101.478 247.65C101.48 247.687 101.483 247.742 101.488 247.815C101.498 247.96 101.515 248.169 101.537 248.435C101.582 248.965 101.648 249.713 101.731 250.607C101.895 252.395 102.119 254.763 102.345 257.125C102.572 259.488 102.8 261.845 102.971 263.612C103.057 264.495 103.129 265.23 103.179 265.745L103.258 266.554C103.258 266.554 103.258 266.554 103.018 266.584L103.258 266.554L103.289 266.874L97.0107 266.122L97.0716 265.614L102.747 266.294L102.7 265.805C102.649 265.29 102.578 264.555 102.492 263.671C102.32 261.905 102.092 259.547 101.866 257.184C101.639 254.821 101.415 252.453 101.251 250.664C101.169 249.77 101.102 249.02 101.057 248.487C101.035 248.222 101.018 248.009 101.007 247.86C101.002 247.785 100.998 247.725 100.997 247.68C100.996 247.659 100.995 247.638 100.995 247.62C100.995 247.612 100.995 247.6 100.996 247.588C100.996 247.588 100.996 247.589 100.996 247.588Z" fill="#00214E"/>
<path fill-rule="evenodd" clip-rule="evenodd" d="M118.301 243.513C114.851 241.977 110.96 241.903 107.42 243.306L107.258 242.827C110.913 241.379 114.93 241.455 118.493 243.041L118.301 243.513Z" fill="#00214E"/>
<path fill-rule="evenodd" clip-rule="evenodd" d="M95.6323 243.293C91.1581 240.55 85.7351 240.088 80.8424 242.031L80.6793 241.552C85.7072 239.555 91.28 240.031 95.8779 242.849L95.6323 243.293Z" fill="#00214E"/>
<path d="M69.4174 220.675C70.0287 219.455 71.4498 218.976 72.5901 219.607L80.3815 223.92C81.5218 224.552 81.9495 226.054 81.3382 227.274V227.274C80.7269 228.493 79.3058 228.972 78.1655 228.341L70.374 224.028C69.2337 223.397 68.806 221.894 69.4174 220.675V220.675Z" fill="#FF2609"/>
<path d="M65.3324 227.835C65.9437 226.615 67.3648 226.136 68.5051 226.767L76.2966 231.08C77.4369 231.711 77.8645 233.214 77.2532 234.433V234.433C76.6419 235.653 75.2208 236.132 74.0805 235.501L66.2891 231.188C65.1488 230.557 64.7211 229.054 65.3324 227.835V227.835Z" fill="#F2D4CF"/>
</g>
<mask id="mask1_41_267" style="mask-type:alpha" maskUnits="userSpaceOnUse" x="25" y="213" width="123" height="130">
<ellipse cx="86.927" cy="278.113" rx="60.921" ry="64.7691" transform="rotate(6.82899 86.927 278.113)" fill="#C4C4C4"/>
</mask>
<g mask="url(#mask1_41_267)">
<path d="M86.9783 326.693C79 326.284 71.3613 325.065 63.5363 323.983C54.6184 322.915 43.6927 324.113 38.002 315.052C34.0671 308.785 35.6598 300.183 38.891 293.372C41.1679 288.575 44.271 283.764 43.968 278.437C43.7381 274.403 41.5582 270.816 40.8738 266.851C40.2066 262.986 41.0689 258.459 43.3787 255.291C45.487 252.387 48.4726 251.11 49.5236 247.234C50.0985 245.107 49.7955 242.858 49.7249 240.653C49.1486 222.582 64.1497 211.775 78.3587 205.923C87.0738 202.325 97.1319 201.405 105.474 206.313C106.081 206.733 106.753 207.038 107.461 207.216C108.122 207.266 108.786 207.249 109.446 207.165C120.602 206.758 132.298 229.219 128.015 239.385C126.715 242.463 124.875 245.594 125.302 248.915C125.934 253.807 131.265 257.003 131.381 261.946C131.509 267.278 125.434 271.31 125.899 276.621C126.174 279.748 128.666 282.068 130.092 284.822C131.159 286.914 131.627 289.299 131.438 291.687C131.329 293.162 130.967 294.608 130.369 295.952C128.582 299.941 124.707 303.298 125.049 307.691C125.454 312.896 131.397 315.433 130.384 321.18C129.837 324.25 127.002 326.339 124.169 327.191C122.138 327.737 120.07 328.1 117.986 328.276C116.442 328.452 115.156 327.973 113.635 327.956C109.401 327.908 105.196 328.111 100.958 327.861C96.3188 327.553 91.6543 326.933 86.9783 326.693Z" fill="url(#paint2_linear_41_267)"/>
<path d="M138.911 329.973C103.812 352.311 59.2519 346.763 30.675 316.495L55.3316 307.686C56.0867 307.413 56.8285 307.099 57.5541 306.745L58.1323 306.453C58.3388 306.349 58.5411 306.239 58.744 306.124C61.9374 304.323 64.6871 301.739 66.7615 298.591C69.1339 294.982 70.2728 290.818 70.819 286.5C71.1672 283.592 71.3672 280.667 71.6874 277.75C71.8615 276.135 72.0385 274.521 72.2185 272.91L73.114 273.533L75.4367 275.198L89.607 279.551L104.165 284.027L102.666 300.349L101.925 308.444L107.125 311.475L111.207 313.841L138.911 329.973Z" fill="#E18477"/>
<path d="M103.146 296.137C101.743 296.835 100.466 297.09 99.4048 296.839C92.4294 295.183 79.3397 287.639 71.962 275.695C72.0257 275.163 72.0801 274.628 72.1251 274.09C72.2988 272.478 72.4758 270.864 72.6562 269.25L73.5517 269.872L75.8744 271.538L90.0448 275.89L104.603 280.367L103.146 296.137Z" fill="#A76962"/>
<path d="M70.3567 256.057C69.7851 260.83 65.6823 264.263 61.1928 263.725C56.7033 263.188 53.5272 258.883 54.0988 254.11C54.6704 249.336 58.7732 245.903 63.2627 246.441C67.7522 246.978 70.9283 251.283 70.3567 256.057Z" fill="#E18477"/>
<path d="M73.3469 255.383C72.7753 260.156 68.6725 263.59 64.183 263.052C59.6935 262.515 56.5174 258.209 57.089 253.436C57.6606 248.663 61.7635 245.23 66.253 245.767C70.7424 246.305 73.9185 250.61 73.3469 255.383Z" fill="#A76962"/>
<path d="M119.026 248.751C122.162 270.109 107.241 293.693 99.9061 292.815C89.8645 291.612 66.4987 280.166 63.367 258.809C60.2353 237.451 70.1643 217.885 85.5326 215.11C100.901 212.335 115.884 227.398 119.026 248.751Z" fill="#E18477"/>
<path d="M87.3039 248.598C90.2208 248.947 89.6497 253.716 86.7305 253.387L86.5966 253.371C83.6797 253.021 84.2502 248.258 87.1701 248.582L87.3039 248.598Z" fill="#00214E"/>
<path d="M111.336 250.759C114.047 251.084 113.517 255.507 110.803 255.207L110.684 255.193C107.977 254.869 108.507 250.441 111.216 250.745L111.336 250.759Z" fill="#00214E"/>
<path d="M104.202 221.548C104.128 221.678 104.054 221.814 103.974 221.949C102.198 224.927 100.006 227.605 97.4746 229.89C92.4305 234.546 86.4038 237.929 80.2538 240.601C76.6971 242.215 73.0525 243.594 69.341 244.729C64.0005 246.271 59.5637 246.828 59.4067 246.964C59.6859 240.866 58.0962 227.815 75.0039 217.247C88.634 208.736 106.563 211.677 106.563 211.677C106.054 215.438 106.012 218.258 104.202 221.548Z" fill="url(#paint3_linear_41_267)"/>
<path fill-rule="evenodd" clip-rule="evenodd" d="M100.996 247.588C100.996 247.584 100.998 247.549 101.011 247.511L101.464 247.68C101.472 247.656 101.475 247.638 101.475 247.632C101.476 247.625 101.477 247.619 101.477 247.617C101.477 247.614 101.477 247.612 101.477 247.612C101.477 247.612 101.477 247.613 101.477 247.614C101.477 247.619 101.477 247.631 101.478 247.65C101.48 247.687 101.483 247.742 101.488 247.815C101.498 247.96 101.515 248.169 101.537 248.435C101.582 248.965 101.648 249.713 101.731 250.607C101.895 252.395 102.119 254.763 102.345 257.125C102.572 259.488 102.8 261.845 102.971 263.612C103.057 264.495 103.129 265.23 103.179 265.745L103.258 266.554C103.258 266.554 103.258 266.554 103.018 266.584L103.258 266.554L103.289 266.874L97.0107 266.122L97.0716 265.614L102.747 266.294L102.7 265.805C102.649 265.29 102.578 264.555 102.492 263.671C102.32 261.905 102.092 259.547 101.866 257.184C101.639 254.821 101.415 252.453 101.251 250.664C101.169 249.77 101.102 249.02 101.057 248.487C101.035 248.222 101.018 248.009 101.007 247.86C101.002 247.785 100.998 247.725 100.997 247.68C100.996 247.659 100.995 247.638 100.995 247.62C100.995 247.612 100.995 247.6 100.996 247.588C100.996 247.588 100.996 247.589 100.996 247.588Z" fill="#00214E"/>
<path fill-rule="evenodd" clip-rule="evenodd" d="M118.301 243.513C114.851 241.977 110.96 241.903 107.42 243.306L107.258 242.827C110.913 241.379 114.93 241.455 118.493 243.041L118.301 243.513Z" fill="#00214E"/>
<path fill-rule="evenodd" clip-rule="evenodd" d="M95.6323 243.293C91.1581 240.55 85.7351 240.088 80.8424 242.031L80.6793 241.552C85.7072 239.555 91.28 240.031 95.8779 242.849L95.6323 243.293Z" fill="#00214E"/>
<path d="M138.911 329.973C103.812 352.311 59.252 346.763 30.6751 316.495L55.3317 307.685C56.5061 307.264 57.6474 306.742 58.7441 306.124C59.0769 305.937 59.411 305.74 59.7319 305.531C62.5109 303.774 64.9087 301.407 66.7616 298.591C68.1668 296.426 69.2154 294.026 69.8619 291.496C70.1579 291.884 70.4728 292.256 70.8053 292.609C73.4612 295.265 76.413 297.568 79.5972 299.468C81.1434 300.388 82.7383 301.214 84.3742 301.943C89.3026 304.143 94.5746 305.384 99.9414 305.607C100.685 305.635 101.435 305.647 102.179 305.679L101.941 308.27L101.921 308.438L107.407 311.632L138.911 329.973Z" fill="url(#paint4_linear_41_267)"/>
<path d="M69.4174 220.675C70.0287 219.455 71.4498 218.976 72.5901 219.607L80.3815 223.92C81.5218 224.552 81.9495 226.054 81.3382 227.274V227.274C80.7269 228.493 79.3058 228.972 78.1655 228.341L70.374 224.028C69.2337 223.397 68.806 221.894 69.4174 220.675V220.675Z" fill="#FF2609"/>
<path d="M65.3324 227.835C65.9437 226.615 67.3648 226.136 68.5051 226.767L76.2966 231.08C77.4369 231.711 77.8645 233.214 77.2532 234.433V234.433C76.6419 235.653 75.2208 236.132 74.0805 235.501L66.2891 231.188C65.1488 230.557 64.7211 229.054 65.3324 227.835V227.835Z" fill="#F2D4CF"/>
<path d="M86.1523 268.298C86.3096 268.089 86.5412 267.959 86.7908 267.939C87.0404 267.919 87.2849 268.01 87.4648 268.192C88.3699 269.058 89.9989 270.847 92.5152 271.705C95.9457 272.869 99.1802 271.74 99.7914 272.793C100.137 273.386 99.5562 273.987 98.4928 274.726C96.2641 276.097 93.6219 276.464 91.1631 275.746C87.858 274.669 85.814 270.191 85.9906 268.717C86.0081 268.565 86.064 268.42 86.1523 268.298Z" fill="white"/>
</g>
<circle r="60.5884" transform="matrix(-0.974287 0.22531 0.22531 0.974287 371.419 116.512)" fill="#56CB77"/>
<mask id="mask2_41_267" style="mask-type:alpha" maskUnits="userSpaceOnUse" x="266" y="13" width="177" height="98">
<rect width="166.199" height="61.3068" transform="matrix(-0.974287 0.22531 0.22531 0.974287 428.487 13.5972)" fill="#C4C4C4"/>
</mask>
<g mask="url(#mask2_41_267)">
<path fill-rule="evenodd" clip-rule="evenodd" d="M334.983 60.2267C323.104 72.5896 324.269 90.2143 327.66 105.746C329.093 112.313 330.662 118.818 332.23 125.314C335.279 137.953 338.32 150.559 340.337 163.522C340.192 162.597 354.437 156.998 356.104 156.533C359.61 155.561 363.351 155.047 367.048 154.538C368.871 154.287 370.683 154.038 372.452 153.736C375.54 153.222 378.67 152.579 381.817 151.932C387.85 150.692 393.946 149.439 399.933 149.062C401.094 148.99 402.241 148.923 403.378 148.857C409.4 148.506 415.159 148.17 421.369 147.094C421.873 147.066 422.349 146.853 422.705 146.495C423.083 146.004 422.923 145.314 422.784 144.712C421.116 137.499 419.126 130.364 417.137 123.235C414.328 113.164 411.521 103.104 409.631 92.8515C408.04 84.1247 404.615 75.835 399.582 68.5306C395.267 62.2258 389.574 56.9861 382.933 53.2085C381.136 52.209 379.259 51.3604 377.322 50.6715C362.919 45.5076 345.709 49.0646 334.983 60.2267ZM384.213 85.6973L378.717 91.8843L352.633 75.6026L354.908 73.3019C358.443 77.0185 362.776 79.8827 367.581 81.6778C372.914 83.7748 378.511 85.1273 384.213 85.6973Z" fill="#00214E"/>
<path d="M324.018 170.841C360.767 187.646 404.233 177.392 429.596 145.934L404.427 140.541C403.656 140.373 402.894 140.165 402.145 139.918L401.547 139.712C401.333 139.639 401.123 139.56 400.912 139.476C397.59 138.162 394.633 136.069 392.289 133.373C389.607 130.282 388.092 126.532 387.146 122.572C386.642 120.393 386.227 118.193 385.78 116.006C385.667 115.518 385.563 115.025 385.468 114.53C385.145 113.048 384.819 111.565 384.489 110.081L384.456 110.089L383.673 110.761L381.536 112.578L367.957 118.25L354.007 124.081L356.266 135.357L356.915 138.589L357.031 139.089L358.524 146.545L353.675 149.962L349.868 152.632L324.018 170.841Z" fill="#F2A196"/>
<path d="M356.267 135.362C357.432 135.818 358.713 135.886 359.92 135.554C366.645 133.218 378.862 124.695 385.012 112.728C384.899 112.239 384.795 111.747 384.7 111.251L384.434 110.099L383.65 110.771L381.514 112.588L367.935 118.26L353.985 124.091L356.267 135.362Z" fill="#E88870"/>
<circle r="8.14231" transform="matrix(-0.974287 0.22531 0.22531 0.974287 392.697 92.4364)" fill="#F2A196"/>
<circle r="8.14231" transform="matrix(-0.974287 0.22531 0.22531 0.974287 389.682 92.1508)" fill="#E88870"/>
<path d="M336.005 92.8935C334.916 113.143 351.862 133.406 359.021 131.751C368.82 129.485 390.808 116.151 391.892 95.9019C392.976 75.6529 381.335 58.563 365.904 57.7365C350.474 56.91 337.092 72.6388 336.005 92.8935Z" fill="#F2A196"/>
<path d="M368.426 109.691C366.764 112.714 364.061 115.032 360.82 116.213" stroke="#00214E"/>
<path d="M353.932 90.8515C353.977 90.9395 352.621 95.3629 352.419 99.8487C352.394 102.229 352.676 104.603 353.256 106.911L359.56 105.453" stroke="#00214E"/>
<path d="M347.223 88.2195C343.538 87.3024 339.642 87.8238 336.327 89.6774" stroke="#00214E"/>
<path d="M375.254 83.6937C370.172 82.4294 364.791 83.4936 360.573 86.5973" stroke="#00214E"/>
<path d="M368.026 89.7208C365.185 90.4025 366.192 94.7562 369.043 94.1166L369.169 94.0875C372.015 93.4292 371.004 89.0568 368.152 89.6917L368.026 89.7208Z" fill="#00214E"/>
<path d="M344.483 94.482C341.842 95.0928 342.781 99.1526 345.426 98.5604L345.543 98.5335C348.189 97.9216 347.25 93.8618 344.6 94.455L344.483 94.482Z" fill="#00214E"/>
<path d="M345.652 57.1697C346.377 59.3171 347.235 61.4172 348.222 63.4578C349.936 67.065 352.196 70.386 354.923 73.3034C358.458 77.0201 362.792 79.8843 367.597 81.6793C372.93 83.7763 378.526 85.1289 384.228 85.6989C388.744 86.1529 393.287 86.2901 397.822 86.1094C396.854 82.5823 395.98 78.1438 394.585 74.1107C393.572 71.2184 392.264 68.537 390.42 66.5594C385.454 61.3473 379.112 57.6492 372.129 55.8938L372.067 55.8788C364.344 53.9237 352.843 52.8915 345.652 57.1697Z" fill="#00214E"/>
<path d="M354.937 73.32C358.472 77.0367 362.806 79.9009 367.61 81.696C372.943 83.793 378.54 85.1455 384.242 85.7155L394.599 74.1274L399.587 68.5495C395.272 62.2447 389.578 57.005 382.938 53.2274C381.14 52.2213 379.262 51.3665 377.322 50.6718L372.143 55.9105L354.937 73.32Z" fill="url(#paint5_linear_41_267)"/>
</g>
<mask id="mask3_41_267" style="mask-type:alpha" maskUnits="userSpaceOnUse" x="310" y="55" width="123" height="123">
<circle r="60.5884" transform="matrix(-0.974287 0.22531 0.22531 0.974287 371.419 116.512)" fill="#C4C4C4"/>
</mask>
<g mask="url(#mask3_41_267)">
<path fill-rule="evenodd" clip-rule="evenodd" d="M334.982 60.2267C323.103 72.5896 324.268 90.2143 327.659 105.746C329.092 112.313 330.661 118.818 332.229 125.314C335.278 137.953 338.319 150.559 340.336 163.522C340.191 162.597 354.436 156.998 356.103 156.533C359.609 155.561 363.35 155.047 367.048 154.538C368.87 154.287 370.682 154.038 372.451 153.736C375.539 153.222 378.669 152.579 381.816 151.932C387.849 150.692 393.945 149.439 399.932 149.062C401.093 148.99 402.24 148.923 403.377 148.857C409.399 148.506 415.158 148.17 421.368 147.094C421.872 147.066 422.348 146.853 422.704 146.495C423.082 146.004 422.922 145.314 422.783 144.712C421.115 137.499 419.125 130.364 417.136 123.235C414.327 113.164 411.52 103.104 409.63 92.8515C408.04 84.1247 404.614 75.835 399.581 68.5306C395.266 62.2258 389.573 56.9861 382.932 53.2085C381.135 52.209 379.258 51.3604 377.321 50.6715C362.918 45.5076 345.708 49.0646 334.982 60.2267ZM384.212 85.6973L378.716 91.8843L352.632 75.6026L354.907 73.3019C358.442 77.0185 362.776 79.8827 367.58 81.6778C372.913 83.7748 378.51 85.1273 384.212 85.6973Z" fill="#00214E"/>
<path d="M324.017 170.841C360.766 187.646 404.232 177.392 429.595 145.934L404.426 140.541C403.655 140.373 402.893 140.165 402.144 139.918L401.546 139.712C401.332 139.639 401.122 139.56 400.911 139.476C397.589 138.162 394.632 136.069 392.288 133.373C389.607 130.282 388.091 126.532 387.145 122.572C386.641 120.393 386.226 118.193 385.779 116.006C385.666 115.518 385.562 115.025 385.467 114.53C385.144 113.048 384.818 111.565 384.488 110.081L384.455 110.089L383.672 110.761L381.535 112.578L367.956 118.25L354.006 124.081L356.265 135.357L356.914 138.589L357.03 139.089L358.523 146.545L353.674 149.962L349.867 152.632L324.017 170.841Z" fill="#F2A196"/>
<path d="M356.266 135.362C357.431 135.818 358.712 135.886 359.919 135.554C366.644 133.218 378.861 124.695 385.011 112.728C384.898 112.239 384.794 111.747 384.699 111.251L384.433 110.099L383.649 110.771L381.513 112.588L367.934 118.26L353.984 124.091L356.266 135.362Z" fill="#E88870"/>
<circle r="8.14231" transform="matrix(-0.974287 0.22531 0.22531 0.974287 392.697 92.4366)" fill="#F2A196"/>
<circle r="8.14231" transform="matrix(-0.974287 0.22531 0.22531 0.974287 389.681 92.1508)" fill="#E88870"/>
<path d="M336.004 92.8936C334.915 113.144 351.861 133.406 359.02 131.751C368.819 129.485 390.807 116.151 391.891 95.902C392.975 75.6531 381.334 58.5631 365.903 57.7366C350.473 56.9102 337.091 72.6389 336.004 92.8936Z" fill="#F2A196"/>
<path d="M368.425 109.691C366.763 112.714 364.06 115.032 360.819 116.213" stroke="#00214E"/>
<path d="M353.931 90.8517C353.976 90.9396 352.62 95.3631 352.418 99.8488C352.393 102.229 352.675 104.603 353.255 106.911L359.559 105.453" stroke="#00214E"/>
<path d="M347.222 88.2195C343.537 87.3024 339.641 87.8238 336.326 89.6774" stroke="#00214E"/>
<path d="M375.253 83.6937C370.171 82.4294 364.79 83.4936 360.572 86.5973" stroke="#00214E"/>
<path d="M368.025 89.721C365.184 90.4026 366.191 94.7564 369.042 94.1168L369.168 94.0876C372.014 93.4293 371.003 89.0569 368.151 89.6918L368.025 89.721Z" fill="#00214E"/>
<path d="M344.482 94.482C341.841 95.0928 342.78 99.1526 345.425 98.5604L345.542 98.5335C348.188 97.9216 347.249 93.8618 344.599 94.455L344.482 94.482Z" fill="#00214E"/>
<path d="M345.651 57.1697C346.376 59.3171 347.234 61.4172 348.221 63.4578C349.935 67.065 352.195 70.386 354.922 73.3034C358.457 77.0201 362.791 79.8843 367.596 81.6793C372.929 83.7763 378.525 85.1289 384.227 85.6989C388.743 86.1529 393.286 86.2901 397.821 86.1094C396.853 82.5823 395.979 78.1438 394.584 74.1107C393.571 71.2184 392.263 68.537 390.419 66.5594C385.453 61.3473 379.111 57.6492 372.128 55.8938L372.066 55.8788C364.343 53.9237 352.842 52.8915 345.651 57.1697Z" fill="#00214E"/>
<path d="M324.017 170.841C360.766 187.646 404.232 177.392 429.595 145.934L404.426 140.541C403.227 140.282 402.051 139.926 400.911 139.476C400.565 139.339 400.216 139.194 399.88 139.036C396.971 137.716 394.382 135.785 392.288 133.373C390.697 131.516 389.436 129.4 388.56 127.117C388.304 127.512 388.028 127.895 387.733 128.262C385.362 131.041 382.665 133.525 379.701 135.66C378.261 136.693 376.764 137.645 375.218 138.51C370.56 141.122 365.472 142.88 360.195 143.7C359.463 143.81 358.724 143.908 357.993 144.022L358.472 146.409L358.507 146.563L353.392 150.165L324.017 170.841Z" fill="#F2D4CF"/>
<path d="M354.936 73.32C358.471 77.0367 362.805 79.9009 367.609 81.696C372.942 83.793 378.539 85.1455 384.241 85.7155L394.598 74.1274L399.586 68.5495C395.271 62.2447 389.577 57.005 382.937 53.2274C381.139 52.2213 379.261 51.3665 377.321 50.6718L372.142 55.9105L354.936 73.32Z" fill="url(#paint6_linear_41_267)"/>
</g>
<circle r="52.8974" transform="matrix(-0.989823 -0.142307 -0.142307 0.989823 1200.3 128.039)" fill="#FB7777"/>
<mask id="mask4_41_267" style="mask-type:alpha" maskUnits="userSpaceOnUse" x="1128" y="41" width="152" height="75">
<rect width="145.102" height="53.5246" transform="matrix(-0.989823 -0.142307 -0.142307 0.989823 1279.25 62.2904)" fill="#C4C4C4"/>
</mask>
<g mask="url(#mask4_41_267)">
<circle r="12.825" transform="matrix(-0.989823 -0.142307 -0.142307 0.989823 1209.13 69.3909)" fill="url(#paint7_linear_41_267)"/>
<path d="M1188.26 136.704C1194.91 137.543 1201.61 137.887 1208.31 137.736C1221.65 137.432 1235 135.106 1247.5 130.359C1248.24 130.072 1248.98 129.782 1249.74 129.485C1240.88 118.27 1234.95 105.392 1230.31 91.9664C1226.98 82.2809 1225.43 75.9879 1215.96 70.7529C1199.5 61.6565 1175.06 64.6867 1167.3 83.561C1164.02 91.5386 1162.69 100.182 1162.67 108.776C1162.65 117.086 1163.41 133.207 1163.41 133.207C1163.41 133.207 1185 136.295 1188.26 136.704Z" fill="url(#paint8_linear_41_267)"/>
<circle r="7.10874" transform="matrix(-0.989823 -0.142307 -0.142307 0.989823 1219.74 114.539)" fill="#F2A196"/>
<circle r="7.10874" transform="matrix(-0.989823 -0.142307 -0.142307 0.989823 1217.37 113.354)" fill="#E88870"/>
<path d="M1173.45 97.0095C1166.16 113.148 1173.56 134.993 1179.91 135.905C1188.61 137.155 1210.71 133.245 1217.99 117.105C1225.27 100.965 1221.22 83.3839 1208.92 77.8347C1196.62 72.2856 1180.73 80.8828 1173.45 97.0095Z" fill="#F2A196"/>
<path d="M1199.09 104.266C1196.56 103.923 1196.01 107.781 1198.53 108.165L1198.64 108.181C1201.17 108.523 1201.73 104.666 1199.2 104.282L1199.09 104.266L1199.09 104.266Z" fill="#00214E"/>
<path d="M1178.51 99.6854C1176.16 99.3687 1175.65 102.949 1177.99 103.307L1178.1 103.322C1180.44 103.659 1180.96 100.058 1178.62 99.7003L1178.51 99.6854Z" fill="#00214E"/>
<circle r="7.94506" transform="matrix(-0.989823 -0.142307 -0.142307 0.989823 1198.81 106.249)" stroke="white"/>
<circle r="7.94506" transform="matrix(-0.989823 -0.142307 -0.142307 0.989823 1176.99 101.845)" stroke="white"/>
<path d="M1192.69 76.9243C1193.36 84.9208 1196.3 92.0524 1202.71 97.8624C1209.61 104.271 1217.34 107.992 1225.91 111.02C1226.47 105.562 1228.16 98.0153 1226.06 92.7745C1223.66 86.9455 1219.65 81.9204 1214.5 78.2856C1208.82 74.238 1199.78 69.7704 1192.58 70.9738C1192.49 72.9575 1192.53 74.9449 1192.69 76.9243V76.9243Z" fill="url(#paint9_linear_41_267)"/>
<path d="M1188.63 99.9953C1188.65 100.141 1183.43 112.91 1183.43 112.91L1188.6 113.654" stroke="#00214E"/>
<path d="M1184.5 95.0875C1181.79 93.1735 1178.45 92.3672 1175.17 92.8337" stroke="#00214E"/>
<path d="M1207.09 99.8818C1203.35 97.248 1198.64 96.4151 1194.22 97.6095" stroke="#00214E"/>
<path d="M1190.94 105.118L1184.76 103.684" stroke="white"/>
</g>
<mask id="mask5_41_267" style="mask-type:alpha" maskUnits="userSpaceOnUse" x="1147" y="75" width="107" height="106">
<circle r="52.8974" transform="matrix(-0.989823 -0.142307 -0.142307 0.989823 1200.3 128.039)" fill="#C4C4C4"/>
</mask>
<g mask="url(#mask5_41_267)">
<circle r="12.825" transform="matrix(-0.989823 -0.142307 -0.142307 0.989823 1209.13 69.3909)" fill="url(#paint10_linear_41_267)"/>
<path d="M1188.26 136.704C1194.91 137.543 1201.61 137.887 1208.31 137.736C1221.65 137.432 1235 135.106 1247.5 130.359C1248.24 130.072 1248.98 129.782 1249.74 129.485C1240.88 118.27 1234.95 105.392 1230.31 91.9664C1226.98 82.2809 1225.43 75.9879 1215.96 70.7529C1199.5 61.6565 1175.06 64.6867 1167.3 83.561C1164.02 91.5386 1162.69 100.182 1162.67 108.776C1162.65 117.086 1163.41 133.207 1163.41 133.207C1163.41 133.207 1185 136.295 1188.26 136.704Z" fill="url(#paint11_linear_41_267)"/>
<path d="M1139.08 156.67C1163.68 181.953 1202.3 187.331 1232.88 169.734L1214.09 157.397C1213.52 157.017 1212.96 156.607 1212.43 156.169L1212.01 155.813C1211.86 155.686 1211.71 155.555 1211.57 155.42C1209.28 153.301 1207.53 150.662 1206.48 147.726C1205.27 144.363 1205.22 140.832 1205.7 137.311C1205.98 135.378 1206.34 133.456 1206.66 131.534C1206.73 131.098 1206.8 130.665 1206.87 130.234C1207.08 128.923 1207.28 127.613 1207.48 126.304L1207.45 126.3L1206.6 126.6L1204.29 127.404L1191.45 127.733L1178.25 128.075L1176.53 137.966L1176.04 140.802L1175.97 141.245L1174.83 147.786L1169.81 149.036L1165.87 150.007L1139.08 156.67Z" fill="#F2A196"/>
<path d="M1176.53 137.975C1177.33 138.714 1178.35 139.173 1179.44 139.285C1185.66 139.507 1198.29 136.426 1207.08 128.629C1207.14 128.193 1207.21 127.759 1207.29 127.328L1207.44 126.306L1206.59 126.606L1204.28 127.41L1191.43 127.74L1178.24 128.081L1176.53 137.975Z" fill="#E88870"/>
<circle r="7.10874" transform="matrix(-0.989823 -0.142307 -0.142307 0.989823 1219.74 114.539)" fill="#F2A196"/>
<circle r="7.10874" transform="matrix(-0.989823 -0.142307 -0.142307 0.989823 1217.37 113.354)" fill="#E88870"/>
<path d="M1173.45 97.0095C1166.16 113.148 1173.56 134.993 1179.91 135.905C1188.61 137.155 1210.71 133.245 1217.99 117.105C1225.27 100.965 1221.22 83.3839 1208.92 77.8347C1196.62 72.2856 1180.73 80.8828 1173.45 97.0095Z" fill="#F2A196"/>
<path d="M1199.09 104.266C1196.56 103.923 1196.01 107.781 1198.53 108.165L1198.64 108.181C1201.17 108.523 1201.73 104.666 1199.2 104.282L1199.09 104.266L1199.09 104.266Z" fill="#00214E"/>
<path d="M1178.51 99.6854C1176.16 99.3687 1175.65 102.949 1177.99 103.307L1178.1 103.322C1180.44 103.659 1180.96 100.058 1178.62 99.7003L1178.51 99.6854Z" fill="#00214E"/>
<circle r="7.94506" transform="matrix(-0.989823 -0.142307 -0.142307 0.989823 1198.81 106.249)" stroke="white"/>
<circle r="7.94506" transform="matrix(-0.989823 -0.142307 -0.142307 0.989823 1176.99 101.845)" stroke="white"/>
<path d="M1192.69 76.9243C1193.36 84.9208 1196.3 92.0524 1202.71 97.8624C1209.61 104.271 1217.34 107.992 1225.91 111.02C1226.47 105.562 1228.16 98.0153 1226.06 92.7745C1223.66 86.9455 1219.65 81.9204 1214.5 78.2856C1208.82 74.238 1199.78 69.7704 1192.58 70.9738C1192.49 72.9575 1192.53 74.9449 1192.69 76.9243V76.9243Z" fill="url(#paint12_linear_41_267)"/>
<path d="M1188.63 99.9953C1188.65 100.141 1183.43 112.91 1183.43 112.91L1188.6 113.654" stroke="#00214E"/>
<path d="M1184.5 95.0875C1181.79 93.1735 1178.45 92.3672 1175.17 92.8337" stroke="#00214E"/>
<path d="M1207.09 99.8818C1203.35 97.248 1198.64 96.4151 1194.22 97.6095" stroke="#00214E"/>
<path d="M1190.94 105.118L1184.76 103.684" stroke="white"/>
<path d="M1139.08 156.671C1163.69 181.953 1202.3 187.331 1232.88 169.734L1214.1 157.397C1213.2 156.809 1212.36 156.147 1211.57 155.421C1211.33 155.2 1211.1 154.972 1210.87 154.737C1208.92 152.743 1207.42 150.352 1206.48 147.726C1205.77 145.714 1205.41 143.597 1205.42 141.465C1205.09 141.706 1204.74 141.93 1204.39 142.136C1201.58 143.648 1198.6 144.817 1195.51 145.617C1194.01 146.004 1192.5 146.306 1190.96 146.522C1186.35 147.177 1181.65 147.001 1177.1 146.003C1176.47 145.862 1175.83 145.707 1175.2 145.57L1174.84 147.664L1174.82 147.8L1169.52 149.117L1139.08 156.671Z" fill="#845161"/>
<path d="M1196.79 119.601C1196.7 119.403 1196.54 119.251 1196.33 119.181C1196.13 119.112 1195.9 119.131 1195.71 119.234C1194.77 119.715 1193.01 120.772 1190.71 120.893C1187.58 121.064 1185.11 119.462 1184.37 120.158C1183.95 120.55 1184.3 121.155 1185.03 121.966C1186.61 123.534 1188.74 124.403 1190.96 124.377C1193.98 124.248 1196.66 121.17 1196.83 119.965C1196.85 119.842 1196.84 119.716 1196.79 119.601V119.601Z" fill="white"/>
</g>
<circle cx="843.873" cy="308.093" r="40.4074" transform="rotate(10.2877 843.873 308.093)" fill="#FFB950"/>
<mask id="mask6_41_267" style="mask-type:alpha" maskUnits="userSpaceOnUse" x="795" y="241" width="117" height="61">
<rect x="802.584" y="241.351" width="110.841" height="40.8865" transform="rotate(10.2877 802.584 241.351)" fill="#C4C4C4"/>
</mask>
<g mask="url(#mask6_41_267)">
<path d="M873.111 341.931C849.165 354.294 819.884 348.846 801.987 328.697L818.582 324.304C819.372 324.093 820.144 323.819 820.89 323.482C821.116 323.38 821.344 323.272 821.563 323.156C823.458 322.185 825.122 320.816 826.44 319.143C827.441 317.855 828.213 316.405 828.724 314.857C829.065 313.853 829.332 312.826 829.522 311.784C829.72 310.697 829.889 309.604 830.048 308.51C830.155 307.796 830.266 307.079 830.386 306.367C830.554 305.369 830.724 304.371 830.897 303.372L831.468 303.8L832.949 304.943L833.683 305.209L842.175 308.289L851.653 311.73L850.123 321.841L849.624 325.146L849.381 326.751L849.364 326.849L849.654 327.038L852.877 329.084L873.111 341.931Z" fill="#F2A196"/>
<path d="M878.91 277.963C878.848 278.144 878.781 278.32 878.707 278.495C878.319 279.39 877.806 280.224 877.182 280.974L877.149 281.014C876.913 281.295 876.664 281.575 876.4 281.852C875.703 282.558 874.962 283.221 874.183 283.835L873.718 284.196C873.404 284.441 873.088 284.679 872.773 284.914C874.228 284.853 875.346 286.403 875.339 287.856C875.332 289.31 874.511 290.628 873.588 291.759C871.968 293.764 869.946 294.926 868.052 296.578C866.634 297.808 865.684 299.395 864.173 300.543L864.06 300.629C860.098 303.52 854.694 303.383 850.049 304.082C848.379 304.338 830.46 306.085 830.268 307.141C830.31 306.911 828.941 304.952 827.204 302.556C820.962 294.024 820.49 282.508 826.701 273.831C833.38 264.492 845.659 259.192 856.729 257.585C860.189 257.083 864.025 257.02 866.843 259.096C869.661 261.172 870.348 266.151 867.367 267.979C869.201 267.052 871.313 266.833 873.299 267.365C875.14 267.819 876.753 268.928 877.837 270.484C878.693 271.726 879.209 273.172 879.332 274.677C879.423 275.79 879.28 276.91 878.91 277.963V277.963Z" fill="#845161"/>
<path d="M878.91 277.964C878.848 278.144 878.781 278.32 878.707 278.495C878.669 278.543 878.63 278.595 878.591 278.652C878.088 279.399 877.766 280.243 877.195 280.977L877.162 281.016C876.926 281.298 876.677 281.577 876.412 281.854C875.72 282.566 874.979 283.229 874.195 283.838L873.718 284.196C873.404 284.441 873.088 284.679 872.773 284.914C874.228 284.853 875.346 286.403 875.339 287.857C875.332 289.31 874.511 290.628 873.588 291.759C871.968 293.764 869.946 294.926 868.052 296.578C866.634 297.808 865.684 299.395 864.173 300.543C863.026 298.537 862.48 296.244 862.6 293.936C862.841 289.675 863.98 285.191 864.604 280.947C864.997 278.279 864.231 277.633 866.211 275.775C867.777 274.43 869.511 273.294 871.37 272.397C872.805 271.785 874.479 271.952 875.971 272.447C877.271 272.871 878.431 273.643 879.325 274.679C879.418 275.791 879.277 276.91 878.91 277.964Z" fill="#69303A"/>
<circle cx="829.402" cy="294.008" r="5.43024" transform="rotate(10.2877 829.402 294.008)" fill="#F2A196"/>
<circle cx="831.097" cy="294.315" r="4.86166" transform="rotate(10.2877 831.097 294.315)" fill="#E88870"/>
<path d="M832.082 289.299L830.213 307.465L848.88 323.456C851.67 325.115 855.264 324.389 857.19 321.776C861.312 316.168 867.897 307.325 867.918 303.596C867.945 298.082 865.773 295.739 865.773 295.739C866.503 293.708 867.23 291.682 867.954 289.662C868.778 287.373 869.732 285.001 869.575 282.522C869.399 279.678 867.554 278.146 866.232 275.805C860.742 280.73 852.837 282.642 845.851 284.767C842.247 285.879 832.082 289.299 832.082 289.299Z" fill="#F2A196"/>
<path d="M847.645 291.41C849.562 291.758 849.027 294.706 847.107 294.374L847.019 294.358C845.102 294.01 845.637 291.062 847.557 291.394L847.645 291.41Z" fill="#00214E"/>
<path d="M863.476 293.832C865.255 294.172 864.762 296.89 862.977 296.582L862.898 296.568C861.12 296.245 861.616 293.511 863.398 293.818L863.476 293.832Z" fill="#00214E"/>
<path d="M855.785 292.008C855.74 292.113 857.923 304.125 857.923 304.125L852.235 303.375" stroke="#00214E"/>
<path d="M842.829 287.41C845.848 287.337 848.855 287.796 851.715 288.766" stroke="#00214E"/>
<path d="M861.382 290.813C863.254 290.722 865.129 290.93 866.936 291.428" stroke="#00214E"/>
</g>
<mask id="mask7_41_267" style="mask-type:alpha" maskUnits="userSpaceOnUse" x="803" y="267" width="82" height="82">
<circle cx="843.873" cy="308.093" r="40.4074" transform="rotate(10.2877 843.873 308.093)" fill="#C4C4C4"/>
</mask>
<g mask="url(#mask7_41_267)">
<path d="M873.111 341.931C849.165 354.294 819.884 348.846 801.987 328.697L818.582 324.304C819.372 324.093 820.144 323.819 820.89 323.482C821.116 323.38 821.344 323.272 821.563 323.156C823.458 322.185 825.122 320.816 826.44 319.143C827.441 317.855 828.213 316.405 828.724 314.857C829.065 313.853 829.332 312.826 829.522 311.784C829.72 310.697 829.889 309.604 830.048 308.51C830.155 307.796 830.266 307.079 830.386 306.367C830.554 305.369 830.724 304.371 830.897 303.372L831.468 303.8L832.949 304.943L833.683 305.209L842.175 308.289L851.653 311.73L850.123 321.841L849.624 325.146L849.381 326.751L849.364 326.849L849.654 327.038L852.877 329.084L873.111 341.931Z" fill="#F2A196"/>
<path d="M849.361 326.848C848.247 326.838 847.167 326.464 846.285 325.783L830.313 307.051C830.42 306.337 830.267 307.076 830.386 306.364C830.554 305.366 830.725 304.368 830.897 303.369L831.469 303.797L832.95 304.939L833.684 305.206L842.176 308.286L851.654 311.727L850.124 321.838L849.625 325.143L849.382 326.748L849.364 326.849L849.361 326.848Z" fill="#E88870"/>
<path d="M873.112 341.931C849.166 354.294 819.884 348.846 801.988 328.697L818.583 324.304C819.373 324.093 820.145 323.819 820.891 323.482C821.117 323.381 821.344 323.273 821.563 323.156C828.009 329.767 837.507 334.923 846.958 332.577C849.21 332.012 851.397 330.838 852.883 329.088L873.112 341.931Z" fill="url(#paint13_linear_41_267)"/>
<path d="M878.91 277.963C878.848 278.144 878.781 278.32 878.707 278.495C878.319 279.39 877.806 280.224 877.182 280.974L877.149 281.014C876.913 281.295 876.664 281.575 876.4 281.852C875.703 282.558 874.962 283.221 874.183 283.835L873.718 284.196C873.404 284.441 873.088 284.679 872.773 284.914C874.228 284.853 875.346 286.403 875.339 287.856C875.332 289.31 874.511 290.628 873.588 291.759C871.968 293.764 869.946 294.926 868.052 296.578C866.634 297.808 865.684 299.395 864.173 300.543L864.06 300.629C860.098 303.52 854.694 303.383 850.049 304.082C848.379 304.338 830.46 306.085 830.268 307.141C830.31 306.911 828.941 304.952 827.204 302.556C820.962 294.024 820.49 282.508 826.701 273.831C833.38 264.492 845.659 259.192 856.729 257.585C860.189 257.083 864.025 257.02 866.843 259.096C869.661 261.172 870.348 266.151 867.367 267.979C869.201 267.052 871.313 266.833 873.299 267.365C875.14 267.819 876.753 268.928 877.837 270.484C878.693 271.726 879.209 273.172 879.332 274.677C879.423 275.79 879.28 276.91 878.91 277.963V277.963Z" fill="#845161"/>
<path d="M878.91 277.964C878.848 278.144 878.781 278.32 878.707 278.495C878.669 278.543 878.63 278.595 878.591 278.652C878.088 279.399 877.766 280.243 877.195 280.977L877.162 281.016C876.926 281.298 876.677 281.577 876.412 281.854C875.72 282.566 874.979 283.229 874.195 283.838L873.718 284.196C873.404 284.441 873.088 284.679 872.773 284.914C874.228 284.853 875.346 286.403 875.339 287.857C875.332 289.31 874.511 290.628 873.588 291.759C871.968 293.764 869.946 294.926 868.052 296.578C866.634 297.808 865.684 299.395 864.173 300.543C863.026 298.537 862.48 296.244 862.6 293.936C862.841 289.675 863.98 285.191 864.604 280.947C864.997 278.279 864.231 277.633 866.211 275.775C867.777 274.43 869.511 273.294 871.37 272.397C872.805 271.785 874.479 271.952 875.971 272.447C877.271 272.871 878.431 273.643 879.325 274.679C879.418 275.791 879.277 276.91 878.91 277.964Z" fill="#69303A"/>
<circle cx="829.402" cy="294.008" r="5.43024" transform="rotate(10.2877 829.402 294.008)" fill="#F2A196"/>
<circle cx="831.097" cy="294.315" r="4.86166" transform="rotate(10.2877 831.097 294.315)" fill="#E88870"/>
<path d="M832.082 289.299L830.213 307.465L848.88 323.456C851.67 325.115 855.264 324.389 857.19 321.776C861.312 316.168 867.897 307.325 867.918 303.596C867.945 298.082 865.773 295.739 865.773 295.739C866.503 293.708 867.23 291.682 867.954 289.662C868.778 287.373 869.732 285.001 869.575 282.522C869.399 279.678 867.554 278.146 866.232 275.805C860.742 280.73 852.837 282.642 845.851 284.767C842.247 285.879 832.082 289.299 832.082 289.299Z" fill="#F2A196"/>
<path d="M847.645 291.41C849.562 291.758 849.027 294.706 847.107 294.374L847.019 294.358C845.102 294.01 845.637 291.062 847.557 291.394L847.645 291.41Z" fill="#00214E"/>
<path d="M863.476 293.832C865.255 294.172 864.762 296.89 862.977 296.582L862.898 296.568C861.12 296.245 861.616 293.511 863.398 293.818L863.476 293.832Z" fill="#00214E"/>
<path d="M855.785 292.008C855.74 292.113 857.923 304.125 857.923 304.125L852.235 303.375" stroke="#00214E"/>
<path d="M842.829 287.41C845.848 287.337 848.855 287.796 851.715 288.766" stroke="#00214E"/>
<path d="M861.382 290.813C863.254 290.722 865.129 290.93 866.936 291.428" stroke="#00214E"/>
<path d="M845.888 305.473C845.999 305.35 846.157 305.28 846.322 305.279C846.488 305.279 846.646 305.347 846.759 305.469C847.329 306.046 848.347 307.237 849.983 307.882C852.212 308.764 854.385 308.2 854.758 308.885C854.967 309.27 854.563 309.619 853.838 310.016C852.32 310.773 850.56 310.885 848.957 310.328C846.808 309.507 845.604 306.626 845.77 305.711C845.788 305.623 845.829 305.541 845.888 305.473V305.473Z" fill="white"/>
</g>
<g filter="url(#filter0_i_41_267)">
<circle cx="809.23" cy="117.884" r="73.1482" transform="rotate(-7.17494 809.23 117.884)" fill="url(#paint14_radial_41_267)"/>
</g>
<mask id="mask8_41_267" style="mask-type:alpha" maskUnits="userSpaceOnUse" x="701" y="0" width="209" height="99">
<rect x="701.673" y="25.0613" width="200.652" height="74.0156" transform="rotate(-7.17494 701.673 25.0613)" fill="#C4C4C4"/>
</mask>
<g mask="url(#mask8_41_267)">
<path d="M855.075 65.1621C855.644 69.6773 851.014 74.1066 850.425 78.4119C849.821 82.8707 853.044 88.3805 851.339 92.43C849.634 96.4795 843.386 98.0937 840.67 101.565C837.954 105.037 838.006 111.47 834.458 114.167C830.91 116.863 824.821 115.065 820.657 116.761C816.632 118.398 813.488 123.981 808.968 124.55C804.447 125.119 800.023 120.489 795.718 119.9C791.265 119.295 785.749 122.519 781.705 120.808C777.66 119.096 776.042 112.86 772.564 110.139C769.086 107.418 762.659 107.481 759.963 103.933C757.267 100.385 759.065 94.2956 757.374 90.1257C755.737 86.1006 750.154 82.9568 749.585 78.4417C749.017 73.9265 753.646 69.4972 754.235 65.1919C754.84 60.7331 751.617 55.2233 753.321 51.1737C755.026 47.1242 761.275 45.51 763.991 42.0385C766.707 38.5669 766.649 32.1341 770.202 29.4371C773.756 26.7401 779.84 28.5386 784.003 26.8431C788.028 25.2057 791.172 19.6229 795.687 19.0545C800.202 18.4861 804.638 23.1149 808.943 23.7035C813.396 24.3086 818.906 21.0856 822.956 22.7962C827.006 24.5069 828.619 30.7439 832.097 33.4649C835.575 36.1859 842.001 36.1229 844.698 39.6708C847.394 43.2188 845.59 49.3089 847.287 53.4781C848.924 57.5032 854.507 60.6469 855.075 65.1621Z" fill="#00214E"/>
<circle cx="775.957" cy="101.768" r="9.8302" transform="rotate(-7.17494 775.957 101.768)" fill="#E18477"/>
<circle cx="779.247" cy="100.771" r="9.25195" transform="rotate(-7.17494 779.247 100.771)" fill="#A76962"/>
<path d="M776.39 81.5483C776.009 82.1791 775.748 83.3484 775.546 85.2155C775.083 89.5458 782.908 116.611 784.763 124.631L807.597 137.41C815.194 141.721 824.3 142.479 832.505 139.485C835.773 138.264 837.842 137.479 839.022 134.585C841.31 129.052 846.298 110.479 845.199 97.9587C844.886 94.408 844.121 89.0259 841.561 86.2826C840.316 84.9532 839.767 84.9931 839.891 82.8736C840.015 80.7541 840.315 78.4666 840.521 76.2609C841.089 70.169 841.296 63.3416 838.655 57.6828C837.248 54.6545 835.201 52.7907 832.41 51.0847C829.429 49.257 828.323 49.5011 827.104 52.9183C826.283 55.2364 825.412 57.2109 823.348 58.7297C820.354 60.9191 818.016 60.0361 814.79 60.1917C811.963 60.3318 812.534 62.4572 812.18 64.5999C811.817 66.848 810.68 68.8983 808.964 70.3957C805.764 73.0949 801.286 73.6837 797.498 71.9033C796.979 71.6217 796.383 71.5148 795.798 71.5985C793.895 71.943 794.098 74.2544 793.87 75.9616C793.38 79.5202 789.598 81.9312 785.989 82.1058C780.105 82.4036 777.62 79.4178 776.39 81.5483Z" fill="#E18477"/>
<path d="M823.728 86.0155C824.166 88.2244 824.829 90.3829 825.705 92.4574C826.518 94.2842 827.539 95.3562 828.892 96.8469C829.356 97.3368 829.772 97.8699 830.135 98.4388C832.079 101.656 830.541 105.69 826.709 106.173L824.339 106.471" stroke="#00214E"/>
<path d="M795.559 83.0808C800.732 81.3155 806.176 80.4744 811.64 80.5959" stroke="#00214E"/>
<path d="M829.445 78.879C832.63 77.7015 835.982 77.0414 839.375 76.9238" stroke="#00214E"/>
<path d="M804.668 87.4766C808.174 87.0353 808.851 92.4168 805.349 92.8868L805.194 92.9063C801.691 93.3182 801.017 87.9654 804.513 87.4961L804.668 87.4766Z" fill="#00214E"/>
<path d="M833.462 83.4674C836.709 83.0586 837.337 88.0499 834.094 88.4874L833.944 88.5062C830.693 88.8863 830.069 83.9236 833.312 83.4861L833.462 83.4674Z" fill="#00214E"/>
<circle cx="775.862" cy="101.197" r="3.47526" transform="rotate(-7.17494 775.862 101.197)" fill="#F2D4CF"/>
<path d="M770.372 110.322C770.15 110.315 769.927 110.302 769.702 110.278C765.44 109.847 762.182 106.282 762.135 101.998C762.089 97.7145 765.269 94.0798 769.52 93.5564V93.5564C769.765 93.5248 769.999 93.6651 770.086 93.8955C770.173 94.1259 770.091 94.386 769.887 94.5243C767.529 96.2103 766.205 98.9905 766.381 101.884C766.557 104.777 768.208 107.376 770.753 108.764C771.088 108.941 771.259 109.323 771.169 109.691C771.079 110.059 770.751 110.319 770.372 110.322V110.322Z" fill="#F2D4CF"/>
<path d="M768.206 94.6427C769.337 94.0398 770.655 93.8885 771.894 94.2192C773.215 94.6178 774.304 95.5593 774.889 96.8086C775.33 97.6872 775.594 98.6445 775.663 99.6252" stroke="#F2D4CF" stroke-width="2"/>
</g>
<mask id="mask9_41_267" style="mask-type:alpha" maskUnits="userSpaceOnUse" x="736" y="44" width="147" height="148">
<circle cx="809.23" cy="117.884" r="73.1482" transform="rotate(-7.17494 809.23 117.884)" fill="#5A90F9"/>
</mask>
<g mask="url(#mask9_41_267)">
<path d="M855.075 65.1619C855.644 69.677 851.014 74.1063 850.425 78.4117C849.821 82.8705 853.044 88.3803 851.339 92.4298C849.634 96.4793 843.386 98.0935 840.67 101.565C837.954 105.037 838.006 111.47 834.458 114.166C830.91 116.863 824.821 115.065 820.657 116.76C816.632 118.398 813.488 123.981 808.968 124.55C804.447 125.119 800.023 120.489 795.718 119.9C791.265 119.295 785.749 122.519 781.705 120.807C777.66 119.096 776.042 112.86 772.564 110.139C769.086 107.418 762.659 107.481 759.963 103.933C757.267 100.385 759.065 94.2954 757.374 90.1254C755.737 86.1004 750.154 82.9566 749.585 78.4414C749.017 73.9263 753.646 69.4969 754.235 65.1916C754.84 60.7328 751.617 55.223 753.321 51.1735C755.026 47.124 761.275 45.5098 763.991 42.0382C766.707 38.5666 766.649 32.1339 770.202 29.4369C773.756 26.7398 779.84 28.5384 784.003 26.8428C788.028 25.2055 791.172 19.6227 795.687 19.0543C800.202 18.4859 804.638 23.1146 808.943 23.7033C813.396 24.3083 818.906 21.0853 822.956 22.796C827.006 24.5066 828.619 30.7437 832.097 33.4647C835.575 36.1857 842.001 36.1227 844.698 39.6706C847.394 43.2185 845.59 49.3086 847.287 53.4778C848.924 57.5029 854.507 60.6467 855.075 65.1619Z" fill="#00214E"/>
<circle cx="775.957" cy="101.768" r="9.8302" transform="rotate(-7.17494 775.957 101.768)" fill="#E18477"/>
<circle cx="779.247" cy="100.771" r="9.25195" transform="rotate(-7.17494 779.247 100.771)" fill="#A76962"/>
<path d="M877.561 160.768C842.927 195.126 789.403 201.624 747.553 176.551L773.823 159.95C775.074 159.158 776.258 158.264 777.362 157.278C777.698 156.98 778.032 156.67 778.347 156.35C781.093 153.643 783.222 150.375 784.589 146.77C786.339 142.149 786.494 137.269 785.914 132.388C785.501 129.106 784.91 125.847 784.462 122.564C784.21 120.75 783.962 118.934 783.718 117.115L784.937 117.545L788.107 118.742L789.519 118.804L805.857 119.509L824.094 120.303L826.944 138.594L828.331 147.476L828.354 147.665L835.652 149.614L877.561 160.768Z" fill="#E18477"/>
<path d="M828.001 145.414L827.129 145.617C818.59 147.46 809.672 145.461 802.738 140.149L784.761 124.106C784.5 122.449 784.567 123.489 784.34 121.828C784.088 120.014 783.84 118.197 783.596 116.379L784.815 116.808L787.993 117.976L789.405 118.037L805.743 118.743L823.98 119.536L826.83 137.827L828.001 145.414Z" fill="#A76962"/>
<path d="M776.39 81.548C776.009 82.1788 775.748 83.3481 775.546 85.2152C775.083 89.5455 782.908 116.611 784.763 124.63L807.597 137.41C815.194 141.72 824.3 142.479 832.505 139.485C835.773 138.263 837.842 137.478 839.022 134.585C841.31 129.052 846.298 110.479 845.199 97.9585C844.886 94.4078 844.121 89.0256 841.561 86.2823C840.316 84.953 839.767 84.9929 839.891 82.8734C840.015 80.7538 840.315 78.4664 840.521 76.2607C841.089 70.1688 841.296 63.3413 838.655 57.6826C837.248 54.6542 835.201 52.7905 832.41 51.0845C829.429 49.2567 828.323 49.5008 827.104 52.918C826.283 55.2361 825.412 57.2107 823.348 58.7294C820.354 60.9189 818.016 60.0358 814.79 60.1914C811.963 60.3316 812.534 62.4569 812.18 64.5996C811.817 66.8477 810.68 68.8981 808.964 70.3955C805.764 73.0946 801.286 73.6834 797.498 71.903C796.979 71.6214 796.383 71.5145 795.798 71.5982C793.895 71.9427 794.098 74.2542 793.87 75.9614C793.38 79.52 789.598 81.931 785.989 82.1056C780.105 82.4033 777.62 79.4175 776.39 81.548Z" fill="#E18477"/>
<path d="M823.728 86.0153C824.166 88.2242 824.829 90.3826 825.705 92.4571C826.518 94.2839 827.539 95.356 828.892 96.8466C829.356 97.3366 829.772 97.8696 830.135 98.4385C832.079 101.656 830.541 105.69 826.709 106.172L824.339 106.471" stroke="#00214E"/>
<path d="M810.326 113.947C813.472 116.676 817.498 118.175 821.663 118.167" stroke="#00214E"/>
<path d="M795.559 83.0805C800.732 81.3152 806.176 80.4741 811.64 80.5956" stroke="#00214E"/>
<path d="M829.445 78.8788C832.63 77.7012 835.982 77.0411 839.375 76.9236" stroke="#00214E"/>
<path d="M877.56 160.768C842.926 195.126 789.402 201.624 747.552 176.551L773.822 159.95C775.073 159.158 776.257 158.264 777.361 157.278C777.697 156.98 778.031 156.67 778.346 156.35C793.068 164.265 812.27 168.008 827.316 158.823C830.897 156.624 834.036 153.408 835.652 149.579L877.56 160.768Z" fill="url(#paint15_linear_41_267)"/>
<path d="M816.183 103.394C815.391 103.945 815.113 104.989 815.528 105.861C815.943 106.733 816.928 107.176 817.855 106.908" stroke="#00214E"/>
<path d="M804.668 87.4764C808.174 87.0351 808.851 92.4166 805.349 92.8865L805.194 92.906C801.691 93.3179 801.017 87.9651 804.513 87.4959L804.668 87.4764Z" fill="#00214E"/>
<path d="M833.462 83.4671C836.709 83.0583 837.337 88.0497 834.094 88.4872L833.944 88.5059C830.693 88.886 830.069 83.9234 833.312 83.4859L833.462 83.4671Z" fill="#00214E"/>
<circle cx="775.862" cy="101.197" r="3.47526" transform="rotate(-7.17494 775.862 101.197)" fill="#F2D4CF"/>
<path d="M770.372 110.321C770.15 110.314 769.927 110.302 769.702 110.277C765.44 109.846 762.182 106.282 762.135 101.998C762.089 97.7142 765.269 94.0795 769.52 93.5561V93.5561C769.765 93.5246 769.999 93.6649 770.086 93.8953C770.173 94.1257 770.091 94.3858 769.887 94.524C767.529 96.21 766.205 98.9903 766.381 101.883C766.557 104.777 768.208 107.376 770.753 108.764C771.088 108.941 771.259 109.323 771.169 109.691C771.079 110.059 770.751 110.318 770.372 110.321V110.321Z" fill="#F2D4CF"/>
<path d="M768.207 94.6424C769.338 94.0396 770.656 93.8882 771.895 94.2189C773.216 94.6175 774.305 95.559 774.89 96.8084C775.331 97.687 775.595 98.6442 775.664 99.625" stroke="#F2D4CF" stroke-width="2"/>
</g>
<ellipse rx="36.6258" ry="38.5046" transform="matrix(-0.983095 0.183099 0.183099 0.983095 548.785 359.921)" fill="url(#paint16_linear_41_267)"/>
<mask id="mask10_41_267" style="mask-type:alpha" maskUnits="userSpaceOnUse" x="486" y="296" width="107" height="58">
<rect width="100.467" height="38.9612" transform="matrix(-0.983095 0.183099 0.183099 0.983095 585.437 296.59)" fill="#C4C4C4"/>
</mask>
<g mask="url(#mask10_41_267)">
<path d="M524.652 391.611C546.548 403.469 573.065 398.403 589.061 379.305L573.939 375.059C573.219 374.856 572.515 374.591 571.833 374.268C571.627 374.171 571.419 374.067 571.219 373.956C569.485 373.024 567.958 371.715 566.74 370.118C565.815 368.889 565.096 367.506 564.612 366.031C564.29 365.075 564.035 364.097 563.849 363.104C563.53 361.393 563.3 359.665 562.998 357.947C562.832 356.997 562.665 356.047 562.496 355.096L561.982 355.501L560.652 356.582L559.989 356.832L552.318 359.729L543.755 362.964L545.271 372.59L545.766 375.736L546.006 377.264L546.023 377.357L542.854 379.471L524.652 391.611Z" fill="#F2A196"/>
<path d="M518.586 330.73C518.644 330.902 518.708 331.07 518.777 331.237C519.14 332.089 519.617 332.886 520.192 333.602L520.223 333.639C520.441 333.908 520.67 334.175 520.914 334.439C521.555 335.115 522.236 335.748 522.952 336.336L523.378 336.68C523.666 336.915 523.956 337.142 524.245 337.367C524.057 337.36 523.87 337.384 523.69 337.437C523.623 337.455 523.557 337.48 523.494 337.51C522.623 337.877 522.012 338.91 521.958 339.964C521.956 340.032 521.954 340.104 521.955 340.172C521.98 341.554 522.741 342.812 523.593 343.892C525.089 345.805 526.94 346.919 528.68 348.499C529.983 349.674 530.866 351.188 532.251 352.286L532.355 352.369L532.437 352.428C536.063 355.134 540.923 355.03 545.123 355.709C546.642 355.959 562.933 357.693 563.121 358.698C563.08 358.48 564.298 356.621 565.845 354.349C571.406 346.257 571.689 335.302 565.941 327.022C559.761 318.111 548.546 313.019 538.475 311.446C535.327 310.955 531.843 310.879 529.311 312.843C526.779 314.807 526.217 319.54 528.947 321.292C527.27 320.402 525.349 320.186 523.553 320.684C521.887 321.109 520.437 322.157 519.473 323.633C518.935 324.463 518.551 325.393 518.34 326.376C518.254 326.784 518.196 327.198 518.168 327.616C518.099 328.669 518.241 329.73 518.586 330.73Z" fill="#F2D4CF"/>
<path d="M518.586 330.73C518.644 330.902 518.708 331.07 518.777 331.236C519.14 332.089 519.617 332.886 520.192 333.601L520.223 333.639C520.441 333.908 520.67 334.175 520.914 334.439C521.555 335.115 522.236 335.748 522.952 336.335L523.378 336.68C523.666 336.914 523.956 337.142 524.245 337.367C524.057 337.36 523.87 337.383 523.69 337.436C523.623 337.455 523.557 337.48 523.494 337.51C522.623 337.876 522.012 338.91 521.958 339.963C521.956 340.032 521.954 340.103 521.955 340.171C521.98 341.554 522.741 342.811 523.593 343.891C525.089 345.805 526.94 346.918 528.68 348.498C529.983 349.674 530.866 351.187 532.251 352.286L532.355 352.368L532.437 352.428C533.28 350.595 533.655 348.558 533.526 346.512C533.242 342.28 532.105 337.823 531.458 333.605C531.231 332.134 530.989 330.374 530.283 329.068C530.097 328.748 529.873 328.452 529.616 328.19C528.927 327.399 528.174 326.672 527.365 326.017C526.455 325.315 525.39 324.873 524.275 324.735C523.675 324.671 523.072 324.667 522.474 324.724C521.832 324.776 521.2 324.907 520.591 325.115C519.779 325.396 519.023 325.827 518.36 326.388C518.274 326.796 518.216 327.21 518.187 327.628C518.114 328.676 518.249 329.732 518.586 330.73Z" fill="#DAAEA8"/>
<ellipse rx="4.92204" ry="5.17453" transform="matrix(-0.983095 0.183099 0.183099 0.983095 563.737 346.193)" fill="#F2A196"/>
<ellipse rx="4.40667" ry="4.63273" transform="matrix(-0.983095 0.183099 0.183099 0.983095 562.199 346.479)" fill="#E88870"/>
<path d="M561.245 341.703L563.169 358.993L546.422 374.131C543.909 375.7 540.636 374.995 538.855 372.5C535.043 367.148 528.954 358.712 528.887 355.16C528.794 349.914 530.736 347.695 530.736 347.695L528.677 341.904C527.903 339.723 527.008 337.463 527.116 335.105C527.241 332.403 528.896 330.95 530.067 328.728C535.114 333.436 542.315 335.287 548.684 337.336C551.973 338.408 561.245 341.703 561.245 341.703Z" fill="#F2A196"/>
<path d="M539.758 344.188C539.8 344.285 537.968 355.704 537.968 355.704L543.124 355.017" stroke="#00214E"/>
<path d="M551.463 339.862C548.721 339.781 545.996 340.205 543.412 341.117" stroke="#00214E"/>
<path d="M534.661 343.025C532.96 342.933 531.261 343.123 529.626 343.588" stroke="#00214E"/>
<path d="M547.298 344.189C545.564 344.527 546.084 347.316 547.823 347.008L547.902 346.993C549.636 346.655 549.117 343.866 547.377 344.174L547.298 344.189Z" fill="#00214E"/>
<path d="M532.956 346.662C531.345 346.962 531.83 349.565 533.443 349.277L533.514 349.264C535.128 348.963 534.643 346.36 533.027 346.649L532.956 346.662Z" fill="#00214E"/>
</g>
<mask id="mask11_41_267" style="mask-type:alpha" maskUnits="userSpaceOnUse" x="512" y="321" width="74" height="78">
<path d="M513.27 366.536C517.117 387.194 536.152 400.932 555.743 397.284C575.335 393.635 588.147 373.965 584.3 353.307C580.452 332.649 561.418 318.91 541.826 322.559C522.235 326.208 509.422 345.878 513.27 366.536Z" fill="#C4C4C4" stroke="black"/>
</mask>
<g mask="url(#mask11_41_267)">
<path d="M524.652 391.611C546.548 403.469 573.065 398.403 589.061 379.305L573.939 375.059C573.219 374.856 572.515 374.592 571.833 374.269C571.627 374.171 571.419 374.067 571.219 373.956C569.485 373.024 567.958 371.715 566.74 370.118C565.815 368.889 565.096 367.506 564.612 366.031C564.29 365.075 564.035 364.097 563.849 363.105C563.53 361.393 563.3 359.665 562.998 357.947C562.832 356.997 562.665 356.047 562.496 355.096L561.982 355.501L560.652 356.582L559.989 356.832L552.318 359.729L543.755 362.964L545.271 372.59L545.766 375.736L546.006 377.264L546.023 377.357L542.854 379.471L524.652 391.611Z" fill="#F2A196"/>
<path d="M545.926 376.642C546.937 376.636 547.913 376.285 548.705 375.641L562.963 357.882C562.857 357.202 563.006 357.908 562.888 357.231C562.723 356.281 562.556 355.331 562.387 354.38L561.873 354.785L560.543 355.865L559.88 356.116L552.208 359.012L543.646 362.248L545.162 371.873L545.656 375.02L545.897 376.548L545.915 376.647L545.926 376.642Z" fill="#E88870"/>
<path d="M524.652 391.611C546.548 403.469 573.065 398.403 589.061 379.305L573.939 375.059C573.219 374.856 572.515 374.592 571.834 374.269C571.627 374.171 571.419 374.067 571.219 373.956C565.45 380.219 556.89 385.086 548.28 382.817C546.229 382.27 544.229 381.144 542.857 379.473L524.652 391.611Z" fill="#FF2609"/>
<path d="M518.586 330.73C518.644 330.902 518.708 331.07 518.777 331.237C519.14 332.089 519.617 332.886 520.192 333.602L520.223 333.639C520.441 333.908 520.67 334.175 520.914 334.439C521.555 335.115 522.236 335.748 522.952 336.336L523.378 336.68C523.666 336.915 523.956 337.142 524.245 337.367C524.057 337.36 523.87 337.384 523.69 337.437C523.623 337.455 523.557 337.48 523.494 337.51C522.623 337.877 522.012 338.91 521.958 339.964C521.956 340.032 521.954 340.104 521.955 340.172C521.98 341.554 522.741 342.812 523.593 343.892C525.089 345.805 526.94 346.919 528.68 348.499C529.983 349.674 530.866 351.188 532.251 352.286L532.355 352.369L532.437 352.428C536.063 355.134 540.923 355.03 545.123 355.709C546.642 355.959 562.933 357.693 563.121 358.698C563.08 358.48 564.298 356.621 565.845 354.349C571.406 346.257 571.689 335.302 565.941 327.022C559.761 318.111 548.546 313.019 538.475 311.446C535.327 310.955 531.843 310.879 529.311 312.843C526.779 314.807 526.217 319.54 528.947 321.292C527.27 320.402 525.349 320.186 523.553 320.684C521.887 321.109 520.437 322.157 519.473 323.633C518.935 324.463 518.551 325.393 518.34 326.376C518.254 326.784 518.196 327.198 518.168 327.616C518.099 328.669 518.241 329.73 518.586 330.73Z" fill="#F2D4CF"/>
<path d="M518.586 330.73C518.644 330.902 518.708 331.07 518.777 331.237C519.14 332.09 519.617 332.886 520.192 333.602L520.223 333.639C520.441 333.908 520.67 334.175 520.914 334.44C521.555 335.115 522.236 335.748 522.952 336.336L523.378 336.68C523.666 336.915 523.956 337.142 524.245 337.367C524.057 337.36 523.87 337.384 523.69 337.437C523.623 337.455 523.557 337.48 523.494 337.51C522.623 337.877 522.012 338.91 521.958 339.964C521.956 340.032 521.954 340.104 521.955 340.172C521.98 341.554 522.741 342.812 523.593 343.892C525.089 345.805 526.94 346.919 528.68 348.499C529.983 349.674 530.866 351.188 532.251 352.286L532.355 352.369L532.437 352.428C533.28 350.596 533.655 348.559 533.526 346.513C533.242 342.28 532.105 337.823 531.458 333.606C531.231 332.134 530.989 330.374 530.283 329.069C530.097 328.748 529.873 328.453 529.616 328.19C528.927 327.399 528.174 326.672 527.365 326.018C526.455 325.316 525.39 324.873 524.275 324.735C523.675 324.672 523.072 324.668 522.474 324.724C521.832 324.777 521.2 324.908 520.591 325.115C519.779 325.396 519.023 325.827 518.36 326.388C518.274 326.796 518.216 327.21 518.187 327.628C518.114 328.676 518.249 329.733 518.586 330.73Z" fill="#DAAEA8"/>
<ellipse rx="4.92204" ry="5.17453" transform="matrix(-0.983095 0.183099 0.183099 0.983095 563.737 346.193)" fill="#F2A196"/>
<ellipse rx="4.40667" ry="4.63273" transform="matrix(-0.983095 0.183099 0.183099 0.983095 562.199 346.479)" fill="#E88870"/>
<path d="M561.245 341.703L563.169 358.993L546.422 374.131C543.909 375.7 540.636 374.995 538.855 372.5C535.043 367.148 528.954 358.712 528.887 355.16C528.794 349.914 530.736 347.695 530.736 347.695L528.677 341.904C527.903 339.723 527.008 337.463 527.116 335.105C527.241 332.403 528.896 330.95 530.067 328.728C535.114 333.436 542.315 335.287 548.684 337.336C551.973 338.408 561.245 341.703 561.245 341.703Z" fill="#F2A196"/>
<path d="M539.758 344.188C539.8 344.285 537.968 355.704 537.968 355.704L543.124 355.017" stroke="#00214E"/>
<path d="M551.463 339.862C548.721 339.781 545.996 340.205 543.412 341.117" stroke="#00214E"/>
<path d="M534.661 343.025C532.96 342.933 531.261 343.123 529.626 343.588" stroke="#00214E"/>
<path d="M548.912 357.035C548.809 356.918 548.666 356.852 548.516 356.85C548.366 356.849 548.223 356.913 548.122 357.027C547.611 357.574 546.702 358.703 545.225 359.31C543.212 360.14 541.231 359.595 540.902 360.245C540.717 360.611 541.089 360.947 541.751 361.325C543.139 362.053 544.738 362.167 546.186 361.642C548.127 360.868 549.185 358.133 549.023 357.262C549.004 357.178 548.967 357.1 548.912 357.035V357.035Z" fill="white"/>
<path d="M547.298 344.189C545.564 344.527 546.084 347.316 547.823 347.008L547.902 346.993C549.636 346.655 549.117 343.866 547.377 344.174L547.298 344.189Z" fill="#00214E"/>
<path d="M532.956 346.662C531.345 346.962 531.83 349.565 533.443 349.277L533.514 349.264C535.128 348.964 534.643 346.36 533.027 346.649L532.956 346.662Z" fill="#00214E"/>
</g>
<circle cx="66.8524" cy="37.3922" r="11.0478" fill="#FFB74B"/>
<circle cx="794.729" cy="367.55" r="18.2713" fill="#357AFF"/>
<circle cx="312.453" cy="372.224" r="13.5972" fill="#FB77B6"/>
<circle cx="923.479" cy="14.4469" r="11.8976" fill="#FFB74B"/>
<circle cx="459.473" cy="62.8871" r="7.64845" fill="#56CB77"/>
<circle cx="1035.66" cy="73.085" r="11.0478" fill="#56CB77"/>
<circle cx="1311.85" cy="138.522" r="7.64845" fill="#357AFF"/>
<circle cx="1175.03" cy="318.685" r="5.9488" fill="#FB7777"/>
<circle cx="32.4341" cy="317.411" r="20.8208" fill="#357AFF"/>
<circle cx="412.732" cy="288.941" r="7.64845" fill="#FFB74B"/>
<circle cx="627.314" cy="178.889" r="4.67405" fill="#357AFF"/>
<circle cx="1035.66" cy="255.798" r="11.0478" fill="#FFB74B"/>
<circle cx="674.479" cy="70.5356" r="11.0478" fill="#FB7777"/>
<circle cx="238.942" cy="254.523" r="9.77302" fill="#FB7777"/>
<defs>
<filter id="filter0_i_41_267" x="736.074" y="44.7281" width="146.312" height="146.312" filterUnits="userSpaceOnUse" color-interpolation-filters="sRGB">
<feFlood flood-opacity="0" result="BackgroundImageFix"/>
<feBlend mode="normal" in="SourceGraphic" in2="BackgroundImageFix" result="shape"/>
<feColorMatrix in="SourceAlpha" type="matrix" values="0 0 0 0 0 0 0 0 0 0 0 0 0 0 0 0 0 0 127 0" result="hardAlpha"/>
<feOffset/>
<feGaussianBlur stdDeviation="12"/>
<feComposite in2="hardAlpha" operator="arithmetic" k2="-1" k3="1"/>
<feColorMatrix type="matrix" values="0 0 0 0 0 0 0 0 0 0 0 0 0 0 0 0 0 0 0.11 0"/>
<feBlend mode="normal" in2="shape" result="effect1_innerShadow_41_267"/>
</filter>
<linearGradient id="paint0_linear_41_267" x1="72.3956" y1="387.111" x2="178.479" y2="317.826" gradientUnits="userSpaceOnUse">
<stop stop-color="#16243F"/>
<stop offset="1" stop-color="#6878B1"/>
</linearGradient>
<linearGradient id="paint1_linear_41_267" x1="71.8481" y1="265.666" x2="113.324" y2="233.164" gradientUnits="userSpaceOnUse">
<stop stop-color="#16243F"/>
<stop offset="1" stop-color="#6878B1"/>
</linearGradient>
<linearGradient id="paint2_linear_41_267" x1="72.3956" y1="387.111" x2="178.479" y2="317.826" gradientUnits="userSpaceOnUse">
<stop stop-color="#16243F"/>
<stop offset="1" stop-color="#6878B1"/>
</linearGradient>
<linearGradient id="paint3_linear_41_267" x1="71.8481" y1="265.666" x2="113.324" y2="233.164" gradientUnits="userSpaceOnUse">
<stop stop-color="#16243F"/>
<stop offset="1" stop-color="#6878B1"/>
</linearGradient>
<linearGradient id="paint4_linear_41_267" x1="28.2793" y1="336.501" x2="136.576" y2="349.47" gradientUnits="userSpaceOnUse">
<stop stop-color="#315676"/>
<stop offset="1" stop-color="#E1B9E0"/>
</linearGradient>
<linearGradient id="paint5_linear_41_267" x1="376.475" y1="101.306" x2="348.709" y2="66.7115" gradientUnits="userSpaceOnUse">
<stop offset="0.29" stop-color="#00214E"/>
<stop offset="0.51" stop-color="#6878B1"/>
<stop offset="0.79" stop-color="#00214E"/>
</linearGradient>
<linearGradient id="paint6_linear_41_267" x1="376.474" y1="101.306" x2="348.708" y2="66.7115" gradientUnits="userSpaceOnUse">
<stop offset="0.29" stop-color="#00214E"/>
<stop offset="0.51" stop-color="#6878B1"/>
<stop offset="0.79" stop-color="#00214E"/>
</linearGradient>
<linearGradient id="paint7_linear_41_267" x1="0" y1="25.6521" x2="25.6542" y2="25.6521" gradientUnits="userSpaceOnUse">
<stop stop-color="#16243F"/>
<stop offset="1" stop-color="#6878B1"/>
</linearGradient>
<linearGradient id="paint8_linear_41_267" x1="1188.97" y1="163.405" x2="1159.86" y2="97.3501" gradientUnits="userSpaceOnUse">
<stop stop-color="#16243F"/>
<stop offset="1" stop-color="#6878B1"/>
</linearGradient>
<linearGradient id="paint9_linear_41_267" x1="1211.14" y1="121.158" x2="1196.09" y2="92.8205" gradientUnits="userSpaceOnUse">
<stop stop-color="#16243F"/>
<stop offset="1" stop-color="#6878B1"/>
</linearGradient>
<linearGradient id="paint10_linear_41_267" x1="0" y1="25.6521" x2="25.6542" y2="25.6521" gradientUnits="userSpaceOnUse">
<stop stop-color="#16243F"/>
<stop offset="1" stop-color="#6878B1"/>
</linearGradient>
<linearGradient id="paint11_linear_41_267" x1="1188.97" y1="163.405" x2="1159.86" y2="97.3501" gradientUnits="userSpaceOnUse">
<stop stop-color="#16243F"/>
<stop offset="1" stop-color="#6878B1"/>
</linearGradient>
<linearGradient id="paint12_linear_41_267" x1="1211.14" y1="121.158" x2="1196.09" y2="92.8205" gradientUnits="userSpaceOnUse">
<stop stop-color="#16243F"/>
<stop offset="1" stop-color="#6878B1"/>
</linearGradient>
<linearGradient id="paint13_linear_41_267" x1="799.745" y1="341.054" x2="870.926" y2="353.974" gradientUnits="userSpaceOnUse">
<stop stop-color="#16243F"/>
<stop offset="1" stop-color="#6878B1"/>
</linearGradient>
<radialGradient id="paint14_radial_41_267" cx="0" cy="0" r="1" gradientUnits="userSpaceOnUse" gradientTransform="translate(809.23 117.884) rotate(90) scale(73.1482)">
<stop offset="1" stop-color="#2976BD"/>
</radialGradient>
<linearGradient id="paint15_linear_41_267" x1="750.392" y1="199.109" x2="880.328" y2="182.752" gradientUnits="userSpaceOnUse">
<stop stop-color="#315676"/>
<stop offset="1" stop-color="#E1B9E0"/>
</linearGradient>
<linearGradient id="paint16_linear_41_267" x1="36.7705" y1="96.1854" x2="34.8506" y2="-2.43151" gradientUnits="userSpaceOnUse">
<stop stop-color="#B3B3B3"/>
<stop offset="1" stop-color="white"/>
</linearGradient>
</defs>
</svg>
