<svg width="34" height="34" viewBox="0 0 34 34" fill="none" xmlns="http://www.w3.org/2000/svg">
<path fill-rule="evenodd" clip-rule="evenodd" d="M33.5129 16.9377V16.8864V16.8862C33.5129 16.4887 33.5129 16.0869 33.4705 15.6894C33.4249 15.0236 33.34 14.3612 33.2162 13.7057C33.0629 12.894 32.8489 12.0952 32.5761 11.316C31.6305 8.97248 30.2272 6.84473 28.4496 5.05934C26.672 3.27396 24.5565 1.86742 22.2289 0.923406C21.4745 0.661293 20.7025 0.454134 19.9187 0.303527C19.2758 0.178624 18.6261 0.0929675 17.973 0.0470254C17.5703 5.96046e-08 17.193 0 16.7691 0H16.7183C13.4074 0.00761089 10.173 1.00423 7.42327 2.86405C4.67354 4.72388 2.53174 7.36355 1.26822 10.4499C0.00469371 13.5362 -0.323924 16.9309 0.323844 20.2055C0.971611 23.48 2.56673 26.4876 4.90786 28.8487C7.249 31.2097 10.2312 32.8184 13.4781 33.4717C16.725 34.125 20.091 33.7936 23.1512 32.5193C26.2115 31.245 28.8289 29.085 30.673 26.3118C32.5171 23.5387 33.5053 20.2767 33.5129 16.9377ZM16.4527 15.9936C15.4366 15.9936 14.4432 15.6897 13.5983 15.1203C12.7534 14.5509 12.0948 13.7417 11.706 12.7949C11.3171 11.848 11.2154 10.8062 11.4136 9.80105C11.6119 8.79591 12.1012 7.87264 12.8197 7.14797C13.5383 6.42331 14.4537 5.92981 15.4504 5.72987C16.447 5.52994 17.4801 5.63255 18.4189 6.02474C19.3577 6.41692 20.1601 7.08107 20.7247 7.93318C21.2892 8.78529 21.5906 9.78711 21.5906 10.8119C21.5891 12.1857 21.0473 13.5028 20.0841 14.4743C19.1209 15.4457 17.8149 15.9921 16.4527 15.9936ZM16.4527 8.14295C15.9293 8.14295 15.4176 8.29949 14.9824 8.59276C14.5472 8.88603 14.208 9.30287 14.0077 9.79056C13.8074 10.2783 13.755 10.8149 13.8571 11.3326C13.9593 11.8504 14.2113 12.3259 14.5814 12.6992C14.9515 13.0725 15.4231 13.3267 15.9364 13.4296C16.4498 13.5326 16.9819 13.4798 17.4655 13.2778C17.949 13.0758 18.3624 12.7337 18.6531 12.2947C18.9439 11.8558 19.0992 11.3398 19.0992 10.8119C19.0977 10.1045 18.8184 9.42652 18.3224 8.92631C17.8264 8.4261 17.1541 8.14443 16.4527 8.14295ZM23.4682 17.3097C23.3725 17.143 23.2451 16.9969 23.0933 16.8799C22.9415 16.7629 22.7683 16.6773 22.5836 16.628C22.3989 16.5787 22.2064 16.5667 22.0171 16.5927C21.8278 16.6187 21.6455 16.6821 21.4806 16.7793C19.9926 17.7443 18.2666 18.2704 16.4977 18.298C14.735 18.2414 13.0174 17.7218 11.5149 16.7905C11.1802 16.6283 10.7968 16.6012 10.443 16.7147C10.0892 16.8282 9.79179 17.0737 9.61149 17.401C9.43119 17.7283 9.38167 18.1126 9.47304 18.4755C9.56441 18.8384 9.78979 19.1524 10.1031 19.3533C10.9279 19.8232 11.791 20.2211 12.6831 20.5426C13.0816 20.6814 13.4716 20.8436 13.8513 21.0284L14.3274 21.2685L10.856 25.5008C10.6214 25.7659 10.4917 26.1087 10.4917 26.464C10.4917 26.8193 10.6214 27.1622 10.856 27.4272C10.9907 27.5793 11.1569 27.6998 11.3427 27.7802C11.5286 27.8606 11.7296 27.899 11.9318 27.8926C12.1339 27.8862 12.3322 27.8353 12.5127 27.7433C12.6932 27.6513 12.8515 27.5205 12.9765 27.3602L16.459 23.1167L19.9469 27.3602C20.1771 27.6388 20.5057 27.8162 20.8633 27.8548C21.2208 27.8933 21.5792 27.79 21.8626 27.5668C22.1523 27.3132 22.3312 26.9545 22.3602 26.5688C22.3892 26.183 22.2661 25.8012 22.0176 25.5064L18.5185 21.2182L18.668 21.1456C19.0261 20.9825 19.3963 20.8481 19.7753 20.7436C20.8937 20.397 21.9663 19.9152 22.9699 19.3086C23.2908 19.1101 23.5229 18.7939 23.6176 18.4264C23.6687 18.2398 23.6818 18.0446 23.6561 17.8527C23.6304 17.6607 23.5665 17.4761 23.4682 17.3097Z" fill="#999999"/>
</svg>
