<svg width="46" height="46" viewBox="0 0 46 46" fill="none" xmlns="http://www.w3.org/2000/svg">
<path fill-rule="evenodd" clip-rule="evenodd" d="M23 46C35.7025 46 46 35.7025 46 23C46 10.2975 35.7025 0 23 0C10.2975 0 0 10.2975 0 23C0 35.7025 10.2975 46 23 46ZM33.5616 17.1591C34.1465 16.4071 34.0111 15.3233 33.2591 14.7384C32.5071 14.1536 31.4233 14.289 30.8384 15.041L21.6223 26.8903C21.4173 27.1538 21.0319 27.188 20.7837 26.9647L14.954 21.7179C14.2458 21.0806 13.1551 21.138 12.5178 21.8461C11.8805 22.5542 11.9379 23.6449 12.6461 24.2823L18.4758 29.5291C20.2126 31.0922 22.911 30.8528 24.3455 29.0084L33.5616 17.1591Z" fill="#02B2BA"/>
</svg>
