<svg width="29" height="25" viewBox="0 0 29 25" fill="none" xmlns="http://www.w3.org/2000/svg">
<path fill-rule="evenodd" clip-rule="evenodd" d="M1.9936 10.7623C9.77821 7.23426 14.9692 4.90834 17.5665 3.78456C24.9823 0.575968 26.5233 0.0186008 27.5276 0.000196234C27.7485 -0.00385165 28.2425 0.0530967 28.5624 0.32315C28.8326 0.551178 28.9069 0.859211 28.9425 1.07541C28.978 1.2916 29.0223 1.7841 28.9871 2.16893C28.5852 6.56125 26.8464 17.2203 25.9617 22.1397C25.5874 24.2214 24.8503 24.9193 24.1368 24.9876C22.5861 25.1361 21.4085 23.9216 19.9066 22.8974C17.5563 21.2948 16.2286 20.2972 13.9472 18.7333C11.3108 16.926 13.0199 15.9327 14.5224 14.3094C14.9156 13.8845 21.7481 7.4198 21.8804 6.83335C21.8969 6.76001 21.9123 6.48661 21.7561 6.34225C21.6 6.19788 21.3695 6.24725 21.2032 6.28651C20.9675 6.34216 17.213 8.92363 9.93955 14.0309C8.87383 14.7921 7.90854 15.163 7.04366 15.1436C6.09021 15.1222 4.25615 14.5828 2.89272 14.1218C1.22041 13.5563 -0.108711 13.2574 0.00702552 12.297C0.0673081 11.7968 0.729499 11.2853 1.9936 10.7623Z" fill="url(#paint0_linear_137_277)"/>
<defs>
<linearGradient id="paint0_linear_137_277" x1="14.5" y1="0" x2="14.5" y2="24.8146" gradientUnits="userSpaceOnUse">
<stop stop-color="#999999"/>
<stop offset="1" stop-color="#999999"/>
</linearGradient>
</defs>
</svg>
