<svg width="29" height="31" viewBox="0 0 29 31" fill="none" xmlns="http://www.w3.org/2000/svg">
<path fill-rule="evenodd" clip-rule="evenodd" d="M2.03854 2.17913C0 4.35825 0 7.86548 0 14.88V16.12C0 23.1345 0 26.6417 2.03854 28.8209C4.07707 31 7.35803 31 13.92 31H15.08C21.642 31 24.9229 31 26.9615 28.8209C29 26.6417 29 23.1345 29 16.12V14.88C29 7.86548 29 4.35825 26.9615 2.17913C24.9229 0 21.642 0 15.08 0H13.92C7.35803 0 4.07707 0 2.03854 2.17913ZM4.89382 9.42923C5.05091 17.4892 8.82089 22.333 15.4305 22.333H15.8051V17.7217C18.2339 17.9801 20.0704 19.8788 20.8075 22.333H24.2392C23.2967 18.6646 20.8195 16.6367 19.2729 15.8617C20.8195 14.9059 22.9945 12.5809 23.5141 9.42923H20.3965C19.7199 11.9867 17.7143 14.3117 15.8051 14.5313V9.42923H12.6875V18.3676C10.7542 17.8509 8.31339 15.3451 8.20464 9.42923H4.89382Z" fill="#999999"/>
</svg>
