<svg width="662" height="179" viewBox="0 0 662 179" fill="none" xmlns="http://www.w3.org/2000/svg">
<path d="M169.6 83.8197H206.026V116.721L226.002 83.8197H266.346L235.403 126.905L267.129 174.69H225.219L206.026 140.222V174.69H169.6V83.8197Z" fill="#006FBA"/>
<path d="M160.589 171.949C154.714 175.083 146.88 177.433 136.305 177.433C106.537 177.433 85.3857 158.24 85.3857 129.255C85.3857 96.354 112.412 81.0784 135.521 81.0784C142.963 81.0784 153.147 83.0368 160.589 88.1287V119.855C155.105 112.805 146.88 110.063 140.613 110.063C126.904 110.063 120.637 119.072 120.637 130.039C120.637 141.789 129.254 148.448 140.613 148.448C148.839 148.448 155.889 144.923 160.981 140.223C160.589 140.223 160.589 171.949 160.589 171.949Z" fill="#006FBA"/>
<path d="M36.4266 117.897V104.971H39.9518C46.2187 104.971 48.1771 108.105 48.1771 111.238C48.1771 114.372 46.6104 117.505 39.9518 117.505L36.4266 117.897ZM0 83.4286V174.691H54.0524C79.1202 174.691 84.6037 158.632 84.6037 149.231C84.6037 136.698 75.9867 128.081 64.2362 126.122V125.73C71.6782 123.38 80.2952 117.113 80.2952 106.538C80.2952 99.4876 77.5534 83.4286 51.3106 83.4286C51.3106 83.4286 0 83.4286 0 83.4286ZM36.4266 152.365V138.656H40.7351C44.2603 138.656 49.7439 139.439 49.7439 145.315C49.7439 151.582 43.8686 152.365 40.7351 152.365H36.4266Z" fill="#006FBA"/>
<path d="M480.204 95.5707L469.629 95.9624L468.845 93.2206L458.661 92.829V90.8705H448.086L449.653 94.3957L454.353 95.1791L453.961 93.6123L458.27 96.7458L465.32 98.3125H470.02L482.162 96.7458L480.204 95.5707Z" fill="#52B9E9"/>
<path d="M453.568 86.5621L448.476 85.7788C448.476 85.7788 448.476 84.2121 446.518 83.037C444.559 82.2536 444.951 83.037 444.951 83.037L442.992 81.8619L439.467 81.4703L439.076 79.1202L434.767 78.7285V77.5534L431.242 77.1617L429.675 75.9867L430.067 74.4199L429.284 73.2449L424.975 71.2865L421.45 70.1114L419.1 67.3696L416.358 65.0195L412.833 61.4944L403.824 58.3609L395.599 52.4856L392.074 50.9189L388.548 49.3522L381.106 45.4353L369.748 39.1684L345.071 27.4179L338.021 24.2844C334.104 22.7177 333.321 21.5426 333.321 21.1509C329.796 20.3676 328.621 19.5842 326.662 18.0175C324.704 18.0175 320.395 15.6674 319.22 14.4923C319.22 14.4923 311.778 12.5339 311.387 11.7505C311.387 11.3588 292.586 4.70021 290.236 4.30852C288.669 4.30852 283.969 3.52516 283.185 3.13347C282.402 3.13347 279.66 2.3501 278.485 1.95842C274.568 1.56674 270.652 0.783368 266.735 0.783368C263.993 0.783368 262.035 0.783368 259.684 0C258.901 0.391684 253.026 -0.391684 250.676 1.17505C248.326 1.17505 242.842 2.3501 241.275 3.13347C238.142 3.13347 232.658 6.65863 230.7 7.44199C229.916 7.83368 228.741 8.22536 227.958 8.61705C233.833 10.5755 240.492 12.9256 240.492 13.3173C240.884 13.7089 248.326 15.6674 248.326 16.059C250.284 17.6258 254.593 19.9759 256.551 19.9759C258.509 21.9343 259.684 22.326 263.21 23.1094C263.21 23.501 263.993 24.6761 267.91 26.2428L274.96 29.3763L299.636 41.1268L310.995 47.3938L318.437 51.3106L321.962 52.8773L325.487 54.4441L328.229 56.4025L333.713 58.3609L345.855 62.2777L360.739 67.7613L366.222 69.7197L371.706 71.2865L374.448 70.8948L377.19 71.6782L380.323 74.4199L383.457 73.2449L385.807 73.6366L387.373 75.9867L388.548 77.1617L391.29 77.9451L394.032 78.3368L397.165 77.5534L401.082 77.9451L402.257 80.2952L407.741 81.0786L411.658 81.4703L415.575 81.8619L418.708 83.037L421.45 85.7788L425.367 86.5621L435.55 88.1289L444.559 86.9538L450.434 87.3455L453.568 86.5621Z" fill="#52B9E9"/>
<path d="M371.707 101.055H382.674V103.013L392.466 103.796L393.641 106.146L403.825 105.755L406.175 107.322L394.033 108.888L389.333 108.497L382.282 106.93L377.974 104.188L378.366 105.363L373.665 104.971L371.707 101.055Z" fill="#006FBA"/>
<path d="M372.882 96.7461C372.882 96.7461 372.882 95.1794 370.924 94.0044C368.966 93.221 369.357 94.0044 369.357 94.0044L367.399 92.8293L364.265 92.0459V89.6958L359.957 89.3042V88.1291L356.432 87.7374L354.865 86.5624L355.257 84.9956L354.473 83.8206L350.165 81.8622L346.64 80.6871L344.289 77.9453L341.548 75.5952L338.023 72.0701L329.014 68.9366L320.788 63.0613L317.263 61.4946L313.738 59.9279L306.296 56.011L294.937 49.7441L270.261 37.9936L263.211 34.8601C259.294 33.2934 258.511 32.1183 258.511 31.7266C254.986 30.9432 253.811 30.1599 251.852 28.5931C249.894 28.5931 245.585 26.243 244.41 25.068C244.41 25.068 236.968 23.1096 236.576 22.3262C236.576 21.9345 217.776 15.2759 215.425 14.8842C213.859 14.8842 209.159 14.1008 208.375 13.7092C207.592 13.7092 204.85 12.9258 203.675 12.5341C199.758 12.1424 195.841 11.3591 191.924 11.3591C189.183 11.3591 187.224 11.3591 184.874 10.5757C184.091 10.9674 178.216 10.184 175.865 11.7507C173.515 11.7507 168.032 12.9258 166.465 13.7092C163.332 13.7092 157.848 17.2343 155.89 18.0177C154.323 18.801 152.364 19.5844 150.798 20.3678C150.014 20.7595 139.83 25.8514 139.047 26.6347C139.047 27.0264 128.863 32.9017 128.08 33.685C127.688 34.0767 124.946 35.2518 124.163 36.0351C123.38 36.8185 120.638 39.1686 119.855 39.5603C119.463 40.3437 116.721 41.5187 116.329 42.3021C115.546 43.0855 112.413 44.6522 112.021 45.0439C112.021 45.0439 110.062 46.6106 108.887 47.7857C108.496 48.569 107.712 49.3524 107.321 50.1358C106.537 50.5274 103.796 52.0942 103.012 52.4859C103.012 54.0526 103.012 56.7944 100.662 56.011C100.662 56.011 97.5286 57.9694 97.5286 57.5778C97.9203 57.5778 95.9619 60.3195 94.3951 62.278C93.6118 63.453 88.9116 65.0197 88.1282 66.1948C86.1698 68.5449 84.2113 70.895 82.2529 73.2451C82.2529 73.2451 82.2529 73.2451 82.6446 73.2451C82.6446 73.6368 84.2114 73.6368 84.603 74.0285C84.9947 74.8118 83.8197 75.5952 83.8197 76.7703C83.8197 76.7703 83.8197 76.7703 84.2113 76.7703C85.3864 76.7703 86.9531 75.2035 88.1282 74.8118C88.9116 74.4202 90.0866 74.0285 90.87 73.6368C92.4367 72.8534 94.0034 71.6784 95.9619 70.895C108.104 64.2364 120.638 57.9694 132.78 51.3108C138.655 48.1773 143.356 45.4356 150.014 41.9104C151.581 41.127 157.456 37.2102 161.765 36.8185C167.248 36.4268 174.299 37.9936 175.865 38.7769C177.432 39.5603 181.741 41.5187 184.091 41.9104C184.874 42.3021 186.049 43.0854 186.441 43.0854C186.833 43.4771 190.749 43.8688 192.708 44.6522C193.491 45.0439 194.275 45.4356 195.058 45.8272C198.583 47.0023 207.2 48.9607 210.334 49.7441C213.075 50.5274 214.642 52.0942 215.817 52.4859C217.776 53.6609 218.167 53.2692 220.126 54.0526C223.651 54.4443 225.609 55.6193 225.609 55.6193C226.784 56.011 227.176 56.4027 228.351 56.7944C229.134 56.7944 231.093 58.3611 231.485 58.3611C232.268 58.3611 237.751 60.3195 238.535 60.3195C239.318 60.3195 243.235 61.8863 244.018 62.278C245.193 62.6697 246.369 63.0613 247.544 63.453L258.902 67.7615L271.045 71.6784L285.929 77.1619L291.412 79.1204L296.896 80.6871L299.638 80.2954L302.379 81.0788L305.513 83.8206L308.646 82.6455L310.996 83.0372L312.563 85.3873L313.738 86.5624L316.48 87.3457L319.222 87.7374L322.355 86.954L326.272 87.3457L327.447 89.6958L332.931 90.4792L336.848 90.8709L340.764 91.2626L343.898 92.4376L346.64 95.1794L350.556 95.9628L360.74 97.5295L369.749 96.3545L375.624 96.7461L377.583 95.1794L372.882 96.7461Z" fill="#006FBA"/>
<path d="M297.679 171.166C296.113 171.949 293.763 172.732 290.629 172.732C285.537 172.732 282.404 171.166 280.054 168.816C276.529 165.682 275.354 162.157 275.354 157.848C275.354 152.757 277.704 148.84 280.054 146.881C282.796 144.139 286.712 142.964 290.629 142.964C292.588 142.964 295.329 143.356 297.679 144.531V151.19C294.938 148.056 291.804 148.056 290.629 148.056C284.754 148.056 280.837 152.757 280.837 157.848C280.837 164.115 285.929 167.641 290.629 167.641C293.371 167.641 295.721 166.465 297.288 164.507C297.679 164.899 297.679 171.166 297.679 171.166Z" fill="#006FBA"/>
<path d="M314.131 172.341H308.255V148.84H301.597V144.14H320.398V148.84H313.739L314.131 172.341Z" fill="#006FBA"/>
<path d="M332.151 148.449H334.109C335.284 148.449 336.851 148.449 338.026 149.232C338.809 150.015 339.593 150.799 339.593 152.365C339.593 153.541 339.201 154.716 338.026 155.499C336.851 157.066 335.676 157.066 334.501 157.066H332.151V148.449ZM326.275 143.748V172.341H332.151V161.766H335.676C339.201 161.766 341.551 160.983 343.118 159.416C345.468 157.066 345.468 154.324 345.468 153.149C345.468 151.19 344.685 148.449 342.334 146.099C340.376 144.14 338.026 143.748 334.501 143.748H326.275Z" fill="#006FBA"/>
<path d="M357.608 161.765L361.916 151.581L365.833 161.765H357.608ZM370.142 172.341H376.017L363.875 143.356H359.566L347.032 172.341H353.299L356.041 166.465H367.791L370.142 172.341Z" fill="#006FBA"/>
<path d="M388.944 157.457L380.327 144.14H386.985L392.077 152.757L397.561 144.14H404.219L395.211 157.457L405.003 172.341H398.344L392.077 161.765L385.418 172.341H378.76L388.944 157.457Z" fill="#006FBA"/>
<path d="M426.151 168.032C420.275 168.032 416.359 164.115 416.359 158.24C416.359 152.365 420.275 148.448 426.151 148.448C432.026 148.448 435.943 152.365 435.943 158.24C435.943 163.724 431.634 168.032 426.151 168.032ZM426.151 143.356C417.142 143.356 410.483 149.623 410.483 158.24C410.483 166.857 416.75 173.124 426.151 173.124C435.159 173.124 441.818 166.857 441.818 158.24C441.818 149.623 435.159 143.356 426.151 143.356Z" fill="#006FBA"/>
<path d="M454.743 148.448H456.31C458.66 148.448 460.619 149.231 460.619 151.973C460.619 155.498 457.093 155.498 456.31 155.498H454.743V148.448ZM449.26 143.748V172.341H459.052C461.402 172.341 464.144 171.949 466.494 169.991C468.452 168.424 468.844 166.074 468.844 164.115C468.844 162.549 468.452 160.59 466.886 158.632C466.102 157.848 464.927 157.065 462.969 156.673C463.752 156.282 466.102 154.715 466.102 151.19C466.102 148.84 464.927 146.49 463.36 145.314C461.01 143.356 457.877 143.356 456.31 143.356L449.26 143.748ZM454.743 159.807H456.702C457.877 159.807 459.444 159.807 460.619 160.198C462.577 160.982 462.577 162.549 462.577 163.332C462.577 164.507 462.185 165.682 460.619 166.465C459.444 167.249 457.877 167.249 456.702 167.249H454.352V159.807H454.743Z" fill="#006FBA"/>
<path d="M490.39 168.032C484.515 168.032 480.598 164.115 480.598 158.24C480.598 152.365 484.515 148.448 490.39 148.448C495.874 148.448 500.182 152.365 500.182 158.24C500.182 163.724 496.265 168.032 490.39 168.032ZM490.39 143.356C481.381 143.356 474.723 149.623 474.723 158.24C474.723 166.857 480.99 173.124 490.39 173.124C499.399 173.124 506.057 166.857 506.057 158.24C506.057 149.623 499.399 143.356 490.39 143.356Z" fill="#006FBA"/>
<path d="M518.984 143.748V162.94L535.043 143.356H538.96V172.341H533.084V153.148L517.025 172.732H513.108V143.748C513.5 143.748 518.984 143.748 518.984 143.748ZM522.509 134.739C523.292 137.089 526.034 137.089 526.426 137.089C526.817 137.089 529.559 137.089 530.342 134.739L534.259 136.306C533.084 139.048 530.342 141.006 526.426 141.006C522.509 141.006 519.767 139.048 518.592 136.306L522.509 134.739Z" fill="#006FBA"/>
<path d="M568.726 148.449H577.343V167.249H565.593C566.376 166.466 567.159 165.291 567.943 163.724C568.334 162.549 569.118 160.199 569.118 155.891V148.449H568.726ZM563.242 143.748V156.282C563.242 160.199 562.851 162.158 562.067 163.724C561.284 165.683 559.717 167.641 557.367 167.641V179H562.459V172.733H580.476V179H585.568V167.641H582.435V144.14H563.242V143.748Z" fill="#006FBA"/>
<path d="M605.937 168.032C600.062 168.032 596.145 164.115 596.145 158.24C596.145 152.365 600.062 148.448 605.937 148.448C611.812 148.448 615.729 152.365 615.729 158.24C615.729 163.724 611.812 168.032 605.937 168.032ZM605.937 143.356C596.928 143.356 590.27 149.623 590.27 158.24C590.27 166.857 596.536 173.124 605.937 173.124C614.946 173.124 621.604 166.857 621.604 158.24C621.604 149.623 615.337 143.356 605.937 143.356Z" fill="#006FBA"/>
<path d="M627.479 172.341L632.962 143.356H636.879L644.713 161.765L652.938 143.356H656.855L661.947 172.341H656.071L653.33 154.715L645.496 172.732H643.929L636.096 154.715L632.962 172.341H627.479Z" fill="#006FBA"/>
</svg>
