<svg width="35" height="25" viewBox="0 0 35 25" fill="none" xmlns="http://www.w3.org/2000/svg">
<path d="M34.2791 4.08442C33.8755 2.58525 32.6934 1.40321 31.1943 0.999585C28.4554 0.25 17.4999 0.25 17.4999 0.25C17.4999 0.25 6.54445 0.25 3.80558 0.970755C2.33525 1.37438 1.12438 2.58525 0.720755 4.08442C0 6.82328 0 12.5028 0 12.5028C0 12.5028 0 18.2112 0.720755 20.9212C1.12438 22.4204 2.30642 23.6025 3.80558 24.0061C6.57328 24.7557 17.4999 24.7557 17.4999 24.7557C17.4999 24.7557 28.4554 24.7557 31.1943 24.0349C32.6934 23.6313 33.8755 22.4492 34.2791 20.9501C34.9998 18.2112 34.9998 12.5317 34.9998 12.5317C34.9998 12.5317 35.0287 6.82328 34.2791 4.08442Z" fill="#999999"/>
</svg>
